ISO-10303-21;
HEADER;
FILE_DESCRIPTION(('Open CASCADE Model'),'2;1');
FILE_NAME('Open CASCADE Shape Model','2025-10-26T12:33:35',('Author'),(
    'Open CASCADE'),'Open CASCADE STEP processor 7.6','Open CASCADE 7.6'
  ,'Unknown');
FILE_SCHEMA(('AUTOMOTIVE_DESIGN { 1 0 10303 214 1 1 1 1 }'));
ENDSEC;
DATA;
#1 = APPLICATION_PROTOCOL_DEFINITION('international standard',
  'automotive_design',2000,#2);
#2 = APPLICATION_CONTEXT(
  'core data for automotive mechanical design processes');
#3 = SHAPE_DEFINITION_REPRESENTATION(#4,#10);
#4 = PRODUCT_DEFINITION_SHAPE('','',#5);
#5 = PRODUCT_DEFINITION('design','',#6,#9);
#6 = PRODUCT_DEFINITION_FORMATION('','',#7);
#7 = PRODUCT('stator2-Hub Material domain','stator2-Hub Material domain'
  ,'',(#8));
#8 = PRODUCT_CONTEXT('',#2,'mechanical');
#9 = PRODUCT_DEFINITION_CONTEXT('part definition',#2,'design');
#10 = ADVANCED_BREP_SHAPE_REPRESENTATION('',(#11,#15),#286);
#11 = AXIS2_PLACEMENT_3D('',#12,#13,#14);
#12 = CARTESIAN_POINT('',(0.,0.,0.));
#13 = DIRECTION('',(0.,0.,1.));
#14 = DIRECTION('',(1.,0.,-0.));
#15 = MANIFOLD_SOLID_BREP('stator2-Hub Material domain',#16);
#16 = CLOSED_SHELL('',(#17,#68,#97,#128,#146,#178,#198,#230,#250,#272));
#17 = ADVANCED_FACE('stator2-Material domain-Hub',(#18),#58,.T.);
#18 = FACE_BOUND('',#19,.T.);
#19 = EDGE_LOOP('',(#20,#31,#41,#50));
#20 = ORIENTED_EDGE('',*,*,#21,.T.);
#21 = EDGE_CURVE('',#22,#24,#26,.T.);
#22 = VERTEX_POINT('',#23);
#23 = CARTESIAN_POINT('',(-94.,1.151167991199E-14,28.351654235008));
#24 = VERTEX_POINT('',#25);
#25 = CARTESIAN_POINT('',(94.,0.,28.351654235008));
#26 = CIRCLE('',#27,94.);
#27 = AXIS2_PLACEMENT_3D('',#28,#29,#30);
#28 = CARTESIAN_POINT('',(0.,0.,28.351654235008));
#29 = DIRECTION('',(0.,0.,1.));
#30 = DIRECTION('',(1.,0.,-0.));
#31 = ORIENTED_EDGE('',*,*,#32,.T.);
#32 = EDGE_CURVE('',#24,#33,#35,.T.);
#33 = VERTEX_POINT('',#34);
#34 = CARTESIAN_POINT('',(97.085,0.,32.351654235008));
#35 = B_SPLINE_CURVE_WITH_KNOTS('',4,(#36,#37,#38,#39,#40),
  .UNSPECIFIED.,.F.,.F.,(5,5),(0.,1.),.PIECEWISE_BEZIER_KNOTS.);
#36 = CARTESIAN_POINT('',(94.,0.,28.351654235008));
#37 = CARTESIAN_POINT('',(94.242049896255,0.,28.356058661946));
#38 = CARTESIAN_POINT('',(97.086303329854,0.,28.407813720045));
#39 = CARTESIAN_POINT('',(97.085102216413,0.,32.042350162962));
#40 = CARTESIAN_POINT('',(97.085,0.,32.351654235008));
#41 = ORIENTED_EDGE('',*,*,#42,.F.);
#42 = EDGE_CURVE('',#43,#33,#45,.T.);
#43 = VERTEX_POINT('',#44);
#44 = CARTESIAN_POINT('',(-97.085,1.188948344952E-14,32.351654235008));
#45 = CIRCLE('',#46,97.085);
#46 = AXIS2_PLACEMENT_3D('',#47,#48,#49);
#47 = CARTESIAN_POINT('',(0.,0.,32.351654235008));
#48 = DIRECTION('',(0.,0.,1.));
#49 = DIRECTION('',(1.,0.,-0.));
#50 = ORIENTED_EDGE('',*,*,#51,.F.);
#51 = EDGE_CURVE('',#22,#43,#52,.T.);
#52 = B_SPLINE_CURVE_WITH_KNOTS('',4,(#53,#54,#55,#56,#57),
  .UNSPECIFIED.,.F.,.F.,(5,5),(0.,1.),.PIECEWISE_BEZIER_KNOTS.);
#53 = CARTESIAN_POINT('',(-94.,1.151167991199E-14,28.351654235008));
#54 = CARTESIAN_POINT('',(-94.24204989625,1.154132247505E-14,
    28.356058661946));
#55 = CARTESIAN_POINT('',(-97.08630332985,1.18896430614E-14,
    28.407813720045));
#56 = CARTESIAN_POINT('',(-97.08510221641,1.188949596742E-14,
    32.042350162962));
#57 = CARTESIAN_POINT('',(-97.085,1.188948344952E-14,32.351654235008));
#58 = SURFACE_OF_REVOLUTION('',#59,#65);
#59 = B_SPLINE_CURVE_WITH_KNOTS('',4,(#60,#61,#62,#63,#64),
  .UNSPECIFIED.,.F.,.F.,(5,5),(0.,1.),.PIECEWISE_BEZIER_KNOTS.);
#60 = CARTESIAN_POINT('',(94.,0.,28.351654235008));
#61 = CARTESIAN_POINT('',(94.242049896255,0.,28.356058661946));
#62 = CARTESIAN_POINT('',(97.086303329854,0.,28.407813720045));
#63 = CARTESIAN_POINT('',(97.085102216413,0.,32.042350162962));
#64 = CARTESIAN_POINT('',(97.085,0.,32.351654235008));
#65 = AXIS1_PLACEMENT('',#66,#67);
#66 = CARTESIAN_POINT('',(0.,0.,0.));
#67 = DIRECTION('',(0.,0.,1.));
#68 = ADVANCED_FACE('stator2-Material domain-Hub',(#69),#87,.T.);
#69 = FACE_BOUND('',#70,.T.);
#70 = EDGE_LOOP('',(#71,#78,#79,#86));
#71 = ORIENTED_EDGE('',*,*,#72,.F.);
#72 = EDGE_CURVE('',#33,#43,#73,.T.);
#73 = CIRCLE('',#74,97.085);
#74 = AXIS2_PLACEMENT_3D('',#75,#76,#77);
#75 = CARTESIAN_POINT('',(0.,0.,32.351654235008));
#76 = DIRECTION('',(0.,0.,1.));
#77 = DIRECTION('',(1.,0.,-0.));
#78 = ORIENTED_EDGE('',*,*,#32,.F.);
#79 = ORIENTED_EDGE('',*,*,#80,.T.);
#80 = EDGE_CURVE('',#24,#22,#81,.T.);
#81 = CIRCLE('',#82,94.);
#82 = AXIS2_PLACEMENT_3D('',#83,#84,#85);
#83 = CARTESIAN_POINT('',(0.,0.,28.351654235008));
#84 = DIRECTION('',(0.,0.,1.));
#85 = DIRECTION('',(1.,0.,-0.));
#86 = ORIENTED_EDGE('',*,*,#51,.T.);
#87 = SURFACE_OF_REVOLUTION('',#88,#94);
#88 = B_SPLINE_CURVE_WITH_KNOTS('',4,(#89,#90,#91,#92,#93),
  .UNSPECIFIED.,.F.,.F.,(5,5),(0.,1.),.PIECEWISE_BEZIER_KNOTS.);
#89 = CARTESIAN_POINT('',(94.,0.,28.351654235008));
#90 = CARTESIAN_POINT('',(94.242049896255,0.,28.356058661946));
#91 = CARTESIAN_POINT('',(97.086303329854,0.,28.407813720045));
#92 = CARTESIAN_POINT('',(97.085102216413,0.,32.042350162962));
#93 = CARTESIAN_POINT('',(97.085,0.,32.351654235008));
#94 = AXIS1_PLACEMENT('',#95,#96);
#95 = CARTESIAN_POINT('',(0.,0.,0.));
#96 = DIRECTION('',(0.,0.,1.));
#97 = ADVANCED_FACE('stator2-Material domain-SolidHub',(#98),#123,.F.);
#98 = FACE_BOUND('',#99,.F.);
#99 = EDGE_LOOP('',(#100,#101,#109,#118));
#100 = ORIENTED_EDGE('',*,*,#21,.T.);
#101 = ORIENTED_EDGE('',*,*,#102,.T.);
#102 = EDGE_CURVE('',#24,#103,#105,.T.);
#103 = VERTEX_POINT('',#104);
#104 = CARTESIAN_POINT('',(93.99696201446,0.,28.518609912782));
#105 = LINE('',#106,#107);
#106 = CARTESIAN_POINT('',(94.,0.,28.351654235008));
#107 = VECTOR('',#108,1.);
#108 = DIRECTION('',(-1.819334781151E-02,0.,0.99983448735));
#109 = ORIENTED_EDGE('',*,*,#110,.F.);
#110 = EDGE_CURVE('',#111,#103,#113,.T.);
#111 = VERTEX_POINT('',#112);
#112 = CARTESIAN_POINT('',(-93.99696201446,1.151130786606E-14,
    28.518609912782));
#113 = CIRCLE('',#114,93.99696201446);
#114 = AXIS2_PLACEMENT_3D('',#115,#116,#117);
#115 = CARTESIAN_POINT('',(0.,0.,28.518609912782));
#116 = DIRECTION('',(0.,0.,1.));
#117 = DIRECTION('',(1.,0.,-0.));
#118 = ORIENTED_EDGE('',*,*,#119,.F.);
#119 = EDGE_CURVE('',#22,#111,#120,.T.);
#120 = B_SPLINE_CURVE_WITH_KNOTS('',1,(#121,#122),.UNSPECIFIED.,.F.,.F.,
  (2,2),(0.,0.166983315625),.PIECEWISE_BEZIER_KNOTS.);
#121 = CARTESIAN_POINT('',(-94.,1.151167991199E-14,28.351654235008));
#122 = CARTESIAN_POINT('',(-93.99696201446,1.151130786606E-14,
    28.518609912782));
#123 = CONICAL_SURFACE('',#124,94.,1.819435162104E-02);
#124 = AXIS2_PLACEMENT_3D('',#125,#126,#127);
#125 = CARTESIAN_POINT('',(0.,0.,28.351654235008));
#126 = DIRECTION('',(-0.,-0.,-1.));
#127 = DIRECTION('',(1.,0.,-0.));
#128 = ADVANCED_FACE('stator2-Material domain-SolidHub',(#129),#141,.F.
  );
#129 = FACE_BOUND('',#130,.F.);
#130 = EDGE_LOOP('',(#131,#138,#139,#140));
#131 = ORIENTED_EDGE('',*,*,#132,.F.);
#132 = EDGE_CURVE('',#103,#111,#133,.T.);
#133 = CIRCLE('',#134,93.99696201446);
#134 = AXIS2_PLACEMENT_3D('',#135,#136,#137);
#135 = CARTESIAN_POINT('',(0.,0.,28.518609912782));
#136 = DIRECTION('',(0.,0.,1.));
#137 = DIRECTION('',(1.,0.,-0.));
#138 = ORIENTED_EDGE('',*,*,#102,.F.);
#139 = ORIENTED_EDGE('',*,*,#80,.T.);
#140 = ORIENTED_EDGE('',*,*,#119,.T.);
#141 = CONICAL_SURFACE('',#142,94.,1.819435162104E-02);
#142 = AXIS2_PLACEMENT_3D('',#143,#144,#145);
#143 = CARTESIAN_POINT('',(0.,0.,28.351654235008));
#144 = DIRECTION('',(-0.,-0.,-1.));
#145 = DIRECTION('',(1.,0.,-0.));
#146 = ADVANCED_FACE('stator2-Material domain-SolidHub',(#147),#171,.F.
  );
#147 = FACE_BOUND('',#148,.F.);
#148 = EDGE_LOOP('',(#149,#150,#157,#166));
#149 = ORIENTED_EDGE('',*,*,#110,.T.);
#150 = ORIENTED_EDGE('',*,*,#151,.T.);
#151 = EDGE_CURVE('',#103,#152,#154,.T.);
#152 = VERTEX_POINT('',#153);
#153 = CARTESIAN_POINT('',(93.99696201446,0.,32.351599051658));
#154 = B_SPLINE_CURVE_WITH_KNOTS('',1,(#155,#156),.UNSPECIFIED.,.F.,.F.,
  (2,2),(0.,1.),.PIECEWISE_BEZIER_KNOTS.);
#155 = CARTESIAN_POINT('',(93.99696201446,0.,28.518609912782));
#156 = CARTESIAN_POINT('',(93.99696201446,0.,32.351599051658));
#157 = ORIENTED_EDGE('',*,*,#158,.F.);
#158 = EDGE_CURVE('',#159,#152,#161,.T.);
#159 = VERTEX_POINT('',#160);
#160 = CARTESIAN_POINT('',(-93.99696201446,1.151130786606E-14,
    32.351599051658));
#161 = CIRCLE('',#162,93.99696201446);
#162 = AXIS2_PLACEMENT_3D('',#163,#164,#165);
#163 = CARTESIAN_POINT('',(0.,0.,32.351599051658));
#164 = DIRECTION('',(0.,0.,1.));
#165 = DIRECTION('',(1.,0.,-0.));
#166 = ORIENTED_EDGE('',*,*,#167,.F.);
#167 = EDGE_CURVE('',#111,#159,#168,.T.);
#168 = B_SPLINE_CURVE_WITH_KNOTS('',1,(#169,#170),.UNSPECIFIED.,.F.,.F.,
  (2,2),(0.,1.),.PIECEWISE_BEZIER_KNOTS.);
#169 = CARTESIAN_POINT('',(-93.99696201446,1.151130786606E-14,
    28.518609912782));
#170 = CARTESIAN_POINT('',(-93.99696201446,1.151130786606E-14,
    32.351599051658));
#171 = SURFACE_OF_REVOLUTION('',#172,#175);
#172 = B_SPLINE_CURVE_WITH_KNOTS('',1,(#173,#174),.UNSPECIFIED.,.F.,.F.,
  (2,2),(0.,1.),.PIECEWISE_BEZIER_KNOTS.);
#173 = CARTESIAN_POINT('',(93.99696201446,0.,28.518609912782));
#174 = CARTESIAN_POINT('',(93.99696201446,0.,32.351599051658));
#175 = AXIS1_PLACEMENT('',#176,#177);
#176 = CARTESIAN_POINT('',(0.,0.,0.));
#177 = DIRECTION('',(0.,0.,1.));
#178 = ADVANCED_FACE('stator2-Material domain-SolidHub',(#179),#191,.F.
  );
#179 = FACE_BOUND('',#180,.F.);
#180 = EDGE_LOOP('',(#181,#188,#189,#190));
#181 = ORIENTED_EDGE('',*,*,#182,.F.);
#182 = EDGE_CURVE('',#152,#159,#183,.T.);
#183 = CIRCLE('',#184,93.99696201446);
#184 = AXIS2_PLACEMENT_3D('',#185,#186,#187);
#185 = CARTESIAN_POINT('',(0.,0.,32.351599051658));
#186 = DIRECTION('',(0.,0.,1.));
#187 = DIRECTION('',(1.,0.,-0.));
#188 = ORIENTED_EDGE('',*,*,#151,.F.);
#189 = ORIENTED_EDGE('',*,*,#132,.T.);
#190 = ORIENTED_EDGE('',*,*,#167,.T.);
#191 = SURFACE_OF_REVOLUTION('',#192,#195);
#192 = B_SPLINE_CURVE_WITH_KNOTS('',1,(#193,#194),.UNSPECIFIED.,.F.,.F.,
  (2,2),(0.,1.),.PIECEWISE_BEZIER_KNOTS.);
#193 = CARTESIAN_POINT('',(93.99696201446,0.,28.518609912782));
#194 = CARTESIAN_POINT('',(93.99696201446,0.,32.351599051658));
#195 = AXIS1_PLACEMENT('',#196,#197);
#196 = CARTESIAN_POINT('',(0.,0.,0.));
#197 = DIRECTION('',(0.,0.,1.));
#198 = ADVANCED_FACE('stator2-Material domain-SolidHub',(#199),#223,.F.
  );
#199 = FACE_BOUND('',#200,.F.);
#200 = EDGE_LOOP('',(#201,#202,#209,#218));
#201 = ORIENTED_EDGE('',*,*,#158,.T.);
#202 = ORIENTED_EDGE('',*,*,#203,.T.);
#203 = EDGE_CURVE('',#152,#204,#206,.T.);
#204 = VERTEX_POINT('',#205);
#205 = CARTESIAN_POINT('',(96.918016693493,0.,32.351599051658));
#206 = B_SPLINE_CURVE_WITH_KNOTS('',1,(#207,#208),.UNSPECIFIED.,.F.,.F.,
  (2,2),(0.,1.),.PIECEWISE_BEZIER_KNOTS.);
#207 = CARTESIAN_POINT('',(93.99696201446,0.,32.351599051658));
#208 = CARTESIAN_POINT('',(96.918016693493,0.,32.351599051658));
#209 = ORIENTED_EDGE('',*,*,#210,.F.);
#210 = EDGE_CURVE('',#211,#204,#213,.T.);
#211 = VERTEX_POINT('',#212);
#212 = CARTESIAN_POINT('',(-96.91801669349,1.186903389234E-14,
    32.351599051658));
#213 = CIRCLE('',#214,96.918016693493);
#214 = AXIS2_PLACEMENT_3D('',#215,#216,#217);
#215 = CARTESIAN_POINT('',(0.,0.,32.351599051658));
#216 = DIRECTION('',(0.,0.,1.));
#217 = DIRECTION('',(1.,0.,-0.));
#218 = ORIENTED_EDGE('',*,*,#219,.F.);
#219 = EDGE_CURVE('',#159,#211,#220,.T.);
#220 = B_SPLINE_CURVE_WITH_KNOTS('',1,(#221,#222),.UNSPECIFIED.,.F.,.F.,
  (2,2),(0.,1.),.PIECEWISE_BEZIER_KNOTS.);
#221 = CARTESIAN_POINT('',(-93.99696201446,1.151130786606E-14,
    32.351599051658));
#222 = CARTESIAN_POINT('',(-96.91801669349,1.186903389234E-14,
    32.351599051658));
#223 = SURFACE_OF_REVOLUTION('',#224,#227);
#224 = B_SPLINE_CURVE_WITH_KNOTS('',1,(#225,#226),.UNSPECIFIED.,.F.,.F.,
  (2,2),(0.,1.),.PIECEWISE_BEZIER_KNOTS.);
#225 = CARTESIAN_POINT('',(93.99696201446,0.,32.351599051658));
#226 = CARTESIAN_POINT('',(96.918016693493,0.,32.351599051658));
#227 = AXIS1_PLACEMENT('',#228,#229);
#228 = CARTESIAN_POINT('',(0.,0.,0.));
#229 = DIRECTION('',(0.,0.,1.));
#230 = ADVANCED_FACE('stator2-Material domain-SolidHub',(#231),#243,.F.
  );
#231 = FACE_BOUND('',#232,.F.);
#232 = EDGE_LOOP('',(#233,#240,#241,#242));
#233 = ORIENTED_EDGE('',*,*,#234,.F.);
#234 = EDGE_CURVE('',#204,#211,#235,.T.);
#235 = CIRCLE('',#236,96.918016693493);
#236 = AXIS2_PLACEMENT_3D('',#237,#238,#239);
#237 = CARTESIAN_POINT('',(0.,0.,32.351599051658));
#238 = DIRECTION('',(0.,0.,1.));
#239 = DIRECTION('',(1.,0.,-0.));
#240 = ORIENTED_EDGE('',*,*,#203,.F.);
#241 = ORIENTED_EDGE('',*,*,#182,.T.);
#242 = ORIENTED_EDGE('',*,*,#219,.T.);
#243 = SURFACE_OF_REVOLUTION('',#244,#247);
#244 = B_SPLINE_CURVE_WITH_KNOTS('',1,(#245,#246),.UNSPECIFIED.,.F.,.F.,
  (2,2),(0.,1.),.PIECEWISE_BEZIER_KNOTS.);
#245 = CARTESIAN_POINT('',(93.99696201446,0.,32.351599051658));
#246 = CARTESIAN_POINT('',(96.918016693493,0.,32.351599051658));
#247 = AXIS1_PLACEMENT('',#248,#249);
#248 = CARTESIAN_POINT('',(0.,0.,0.));
#249 = DIRECTION('',(0.,0.,1.));
#250 = ADVANCED_FACE('stator2-Material domain-SolidHub',(#251),#265,.F.
  );
#251 = FACE_BOUND('',#252,.F.);
#252 = EDGE_LOOP('',(#253,#254,#259,#260));
#253 = ORIENTED_EDGE('',*,*,#210,.T.);
#254 = ORIENTED_EDGE('',*,*,#255,.T.);
#255 = EDGE_CURVE('',#204,#33,#256,.T.);
#256 = B_SPLINE_CURVE_WITH_KNOTS('',1,(#257,#258),.UNSPECIFIED.,.F.,.F.,
  (2,2),(0.,1.),.PIECEWISE_BEZIER_KNOTS.);
#257 = CARTESIAN_POINT('',(96.918016693493,0.,32.351599051658));
#258 = CARTESIAN_POINT('',(97.085,0.,32.351654235008));
#259 = ORIENTED_EDGE('',*,*,#42,.F.);
#260 = ORIENTED_EDGE('',*,*,#261,.F.);
#261 = EDGE_CURVE('',#211,#43,#262,.T.);
#262 = B_SPLINE_CURVE_WITH_KNOTS('',1,(#263,#264),.UNSPECIFIED.,.F.,.F.,
  (2,2),(0.,1.),.PIECEWISE_BEZIER_KNOTS.);
#263 = CARTESIAN_POINT('',(-96.91801669349,1.186903389234E-14,
    32.351599051658));
#264 = CARTESIAN_POINT('',(-97.085,1.188948344952E-14,32.351654235008));
#265 = SURFACE_OF_REVOLUTION('',#266,#269);
#266 = B_SPLINE_CURVE_WITH_KNOTS('',1,(#267,#268),.UNSPECIFIED.,.F.,.F.,
  (2,2),(0.,1.),.PIECEWISE_BEZIER_KNOTS.);
#267 = CARTESIAN_POINT('',(96.918016693493,0.,32.351599051658));
#268 = CARTESIAN_POINT('',(97.085,0.,32.351654235008));
#269 = AXIS1_PLACEMENT('',#270,#271);
#270 = CARTESIAN_POINT('',(0.,0.,0.));
#271 = DIRECTION('',(0.,0.,1.));
#272 = ADVANCED_FACE('stator2-Material domain-SolidHub',(#273),#279,.F.
  );
#273 = FACE_BOUND('',#274,.F.);
#274 = EDGE_LOOP('',(#275,#276,#277,#278));
#275 = ORIENTED_EDGE('',*,*,#72,.F.);
#276 = ORIENTED_EDGE('',*,*,#255,.F.);
#277 = ORIENTED_EDGE('',*,*,#234,.T.);
#278 = ORIENTED_EDGE('',*,*,#261,.T.);
#279 = SURFACE_OF_REVOLUTION('',#280,#283);
#280 = B_SPLINE_CURVE_WITH_KNOTS('',1,(#281,#282),.UNSPECIFIED.,.F.,.F.,
  (2,2),(0.,1.),.PIECEWISE_BEZIER_KNOTS.);
#281 = CARTESIAN_POINT('',(96.918016693493,0.,32.351599051658));
#282 = CARTESIAN_POINT('',(97.085,0.,32.351654235008));
#283 = AXIS1_PLACEMENT('',#284,#285);
#284 = CARTESIAN_POINT('',(0.,0.,0.));
#285 = DIRECTION('',(0.,0.,1.));
#286 = ( GEOMETRIC_REPRESENTATION_CONTEXT(3) 
GLOBAL_UNCERTAINTY_ASSIGNED_CONTEXT((#290)) GLOBAL_UNIT_ASSIGNED_CONTEXT
((#287,#288,#289)) REPRESENTATION_CONTEXT('Context #1',
  '3D Context with UNIT and UNCERTAINTY') );
#287 = ( LENGTH_UNIT() NAMED_UNIT(*) SI_UNIT(.MILLI.,.METRE.) );
#288 = ( NAMED_UNIT(*) PLANE_ANGLE_UNIT() SI_UNIT($,.RADIAN.) );
#289 = ( NAMED_UNIT(*) SI_UNIT($,.STERADIAN.) SOLID_ANGLE_UNIT() );
#290 = UNCERTAINTY_MEASURE_WITH_UNIT(LENGTH_MEASURE(1.E-06),#287,
  'distance_accuracy_value','confusion accuracy');
#291 = PRODUCT_RELATED_PRODUCT_CATEGORY('part',$,(#7));
#292 = SHAPE_DEFINITION_REPRESENTATION(#293,#299);
#293 = PRODUCT_DEFINITION_SHAPE('','',#294);
#294 = PRODUCT_DEFINITION('design','',#295,#298);
#295 = PRODUCT_DEFINITION_FORMATION('','',#296);
#296 = PRODUCT('stator2-Shroud Material domain',
  'stator2-Shroud Material domain','',(#297));
#297 = PRODUCT_CONTEXT('',#2,'mechanical');
#298 = PRODUCT_DEFINITION_CONTEXT('part definition',#2,'design');
#299 = ADVANCED_BREP_SHAPE_REPRESENTATION('',(#11,#300),#534);
#300 = MANIFOLD_SOLID_BREP('stator2-Shroud Material domain',#301);
#301 = CLOSED_SHELL('',(#302,#353,#382,#414,#434,#475,#498,#520));
#302 = ADVANCED_FACE('stator2-Material domain-Shroud',(#303),#343,.F.);
#303 = FACE_BOUND('',#304,.F.);
#304 = EDGE_LOOP('',(#305,#316,#326,#335));
#305 = ORIENTED_EDGE('',*,*,#306,.T.);
#306 = EDGE_CURVE('',#307,#309,#311,.T.);
#307 = VERTEX_POINT('',#308);
#308 = CARTESIAN_POINT('',(-94.,1.151167991199E-14,20.351654235008));
#309 = VERTEX_POINT('',#310);
#310 = CARTESIAN_POINT('',(94.,0.,20.351654235008));
#311 = CIRCLE('',#312,94.);
#312 = AXIS2_PLACEMENT_3D('',#313,#314,#315);
#313 = CARTESIAN_POINT('',(0.,0.,20.351654235008));
#314 = DIRECTION('',(0.,0.,1.));
#315 = DIRECTION('',(1.,0.,-0.));
#316 = ORIENTED_EDGE('',*,*,#317,.T.);
#317 = EDGE_CURVE('',#309,#318,#320,.T.);
#318 = VERTEX_POINT('',#319);
#319 = CARTESIAN_POINT('',(103.915,0.,32.351654235008));
#320 = B_SPLINE_CURVE_WITH_KNOTS('',4,(#321,#322,#323,#324,#325),
  .UNSPECIFIED.,.F.,.F.,(5,5),(0.,1.),.PIECEWISE_BEZIER_KNOTS.);
#321 = CARTESIAN_POINT('',(94.,0.,20.351654235008));
#322 = CARTESIAN_POINT('',(94.777604941858,0.,20.351654235008));
#323 = CARTESIAN_POINT('',(103.915,0.,20.351654235008));
#324 = CARTESIAN_POINT('',(103.915,0.,31.410528738053));
#325 = CARTESIAN_POINT('',(103.915,0.,32.351654235008));
#326 = ORIENTED_EDGE('',*,*,#327,.F.);
#327 = EDGE_CURVE('',#328,#318,#330,.T.);
#328 = VERTEX_POINT('',#329);
#329 = CARTESIAN_POINT('',(-103.915,1.272591721334E-14,32.351654235008)
  );
#330 = CIRCLE('',#331,103.915);
#331 = AXIS2_PLACEMENT_3D('',#332,#333,#334);
#332 = CARTESIAN_POINT('',(0.,0.,32.351654235008));
#333 = DIRECTION('',(0.,0.,1.));
#334 = DIRECTION('',(1.,0.,-0.));
#335 = ORIENTED_EDGE('',*,*,#336,.F.);
#336 = EDGE_CURVE('',#307,#328,#337,.T.);
#337 = B_SPLINE_CURVE_WITH_KNOTS('',4,(#338,#339,#340,#341,#342),
  .UNSPECIFIED.,.F.,.F.,(5,5),(0.,1.),.PIECEWISE_BEZIER_KNOTS.);
#338 = CARTESIAN_POINT('',(-94.,1.151167991199E-14,20.351654235008));
#339 = CARTESIAN_POINT('',(-94.77760494185,1.160690905229E-14,
    20.351654235008));
#340 = CARTESIAN_POINT('',(-103.915,1.272591721334E-14,20.351654235008)
  );
#341 = CARTESIAN_POINT('',(-103.915,1.272591721334E-14,31.410528738053)
  );
#342 = CARTESIAN_POINT('',(-103.915,1.272591721334E-14,32.351654235008)
  );
#343 = SURFACE_OF_REVOLUTION('',#344,#350);
#344 = B_SPLINE_CURVE_WITH_KNOTS('',4,(#345,#346,#347,#348,#349),
  .UNSPECIFIED.,.F.,.F.,(5,5),(0.,1.),.PIECEWISE_BEZIER_KNOTS.);
#345 = CARTESIAN_POINT('',(94.,0.,20.351654235008));
#346 = CARTESIAN_POINT('',(94.777604941858,0.,20.351654235008));
#347 = CARTESIAN_POINT('',(103.915,0.,20.351654235008));
#348 = CARTESIAN_POINT('',(103.915,0.,31.410528738053));
#349 = CARTESIAN_POINT('',(103.915,0.,32.351654235008));
#350 = AXIS1_PLACEMENT('',#351,#352);
#351 = CARTESIAN_POINT('',(0.,0.,0.));
#352 = DIRECTION('',(0.,0.,1.));
#353 = ADVANCED_FACE('stator2-Material domain-Shroud',(#354),#372,.F.);
#354 = FACE_BOUND('',#355,.F.);
#355 = EDGE_LOOP('',(#356,#363,#364,#371));
#356 = ORIENTED_EDGE('',*,*,#357,.F.);
#357 = EDGE_CURVE('',#318,#328,#358,.T.);
#358 = CIRCLE('',#359,103.915);
#359 = AXIS2_PLACEMENT_3D('',#360,#361,#362);
#360 = CARTESIAN_POINT('',(0.,0.,32.351654235008));
#361 = DIRECTION('',(0.,0.,1.));
#362 = DIRECTION('',(1.,0.,-0.));
#363 = ORIENTED_EDGE('',*,*,#317,.F.);
#364 = ORIENTED_EDGE('',*,*,#365,.T.);
#365 = EDGE_CURVE('',#309,#307,#366,.T.);
#366 = CIRCLE('',#367,94.);
#367 = AXIS2_PLACEMENT_3D('',#368,#369,#370);
#368 = CARTESIAN_POINT('',(0.,0.,20.351654235008));
#369 = DIRECTION('',(0.,0.,1.));
#370 = DIRECTION('',(1.,0.,-0.));
#371 = ORIENTED_EDGE('',*,*,#336,.T.);
#372 = SURFACE_OF_REVOLUTION('',#373,#379);
#373 = B_SPLINE_CURVE_WITH_KNOTS('',4,(#374,#375,#376,#377,#378),
  .UNSPECIFIED.,.F.,.F.,(5,5),(0.,1.),.PIECEWISE_BEZIER_KNOTS.);
#374 = CARTESIAN_POINT('',(94.,0.,20.351654235008));
#375 = CARTESIAN_POINT('',(94.777604941858,0.,20.351654235008));
#376 = CARTESIAN_POINT('',(103.915,0.,20.351654235008));
#377 = CARTESIAN_POINT('',(103.915,0.,31.410528738053));
#378 = CARTESIAN_POINT('',(103.915,0.,32.351654235008));
#379 = AXIS1_PLACEMENT('',#380,#381);
#380 = CARTESIAN_POINT('',(0.,0.,0.));
#381 = DIRECTION('',(0.,0.,1.));
#382 = ADVANCED_FACE('stator2-Material domain-SolidShroud',(#383),#407,
  .T.);
#383 = FACE_BOUND('',#384,.T.);
#384 = EDGE_LOOP('',(#385,#386,#393,#402));
#385 = ORIENTED_EDGE('',*,*,#306,.T.);
#386 = ORIENTED_EDGE('',*,*,#387,.T.);
#387 = EDGE_CURVE('',#309,#388,#390,.T.);
#388 = VERTEX_POINT('',#389);
#389 = CARTESIAN_POINT('',(94.,0.,19.834798067639));
#390 = B_SPLINE_CURVE_WITH_KNOTS('',1,(#391,#392),.UNSPECIFIED.,.F.,.F.,
  (2,2),(0.,1.),.PIECEWISE_BEZIER_KNOTS.);
#391 = CARTESIAN_POINT('',(94.,0.,20.351654235008));
#392 = CARTESIAN_POINT('',(94.,0.,19.834798067639));
#393 = ORIENTED_EDGE('',*,*,#394,.F.);
#394 = EDGE_CURVE('',#395,#388,#397,.T.);
#395 = VERTEX_POINT('',#396);
#396 = CARTESIAN_POINT('',(-94.,1.151167991199E-14,19.834798067639));
#397 = CIRCLE('',#398,94.);
#398 = AXIS2_PLACEMENT_3D('',#399,#400,#401);
#399 = CARTESIAN_POINT('',(0.,0.,19.834798067639));
#400 = DIRECTION('',(0.,0.,1.));
#401 = DIRECTION('',(1.,0.,-0.));
#402 = ORIENTED_EDGE('',*,*,#403,.F.);
#403 = EDGE_CURVE('',#307,#395,#404,.T.);
#404 = B_SPLINE_CURVE_WITH_KNOTS('',1,(#405,#406),.UNSPECIFIED.,.F.,.F.,
  (2,2),(0.,1.),.PIECEWISE_BEZIER_KNOTS.);
#405 = CARTESIAN_POINT('',(-94.,1.151167991199E-14,20.351654235008));
#406 = CARTESIAN_POINT('',(-94.,1.151167991199E-14,19.834798067639));
#407 = SURFACE_OF_REVOLUTION('',#408,#411);
#408 = B_SPLINE_CURVE_WITH_KNOTS('',1,(#409,#410),.UNSPECIFIED.,.F.,.F.,
  (2,2),(0.,1.),.PIECEWISE_BEZIER_KNOTS.);
#409 = CARTESIAN_POINT('',(94.,0.,20.351654235008));
#410 = CARTESIAN_POINT('',(94.,0.,19.834798067639));
#411 = AXIS1_PLACEMENT('',#412,#413);
#412 = CARTESIAN_POINT('',(0.,0.,0.));
#413 = DIRECTION('',(0.,0.,1.));
#414 = ADVANCED_FACE('stator2-Material domain-SolidShroud',(#415),#427,
  .T.);
#415 = FACE_BOUND('',#416,.T.);
#416 = EDGE_LOOP('',(#417,#424,#425,#426));
#417 = ORIENTED_EDGE('',*,*,#418,.F.);
#418 = EDGE_CURVE('',#388,#395,#419,.T.);
#419 = CIRCLE('',#420,94.);
#420 = AXIS2_PLACEMENT_3D('',#421,#422,#423);
#421 = CARTESIAN_POINT('',(0.,0.,19.834798067639));
#422 = DIRECTION('',(0.,0.,1.));
#423 = DIRECTION('',(1.,0.,-0.));
#424 = ORIENTED_EDGE('',*,*,#387,.F.);
#425 = ORIENTED_EDGE('',*,*,#365,.T.);
#426 = ORIENTED_EDGE('',*,*,#403,.T.);
#427 = SURFACE_OF_REVOLUTION('',#428,#431);
#428 = B_SPLINE_CURVE_WITH_KNOTS('',1,(#429,#430),.UNSPECIFIED.,.F.,.F.,
  (2,2),(0.,1.),.PIECEWISE_BEZIER_KNOTS.);
#429 = CARTESIAN_POINT('',(94.,0.,20.351654235008));
#430 = CARTESIAN_POINT('',(94.,0.,19.834798067639));
#431 = AXIS1_PLACEMENT('',#432,#433);
#432 = CARTESIAN_POINT('',(0.,0.,0.));
#433 = DIRECTION('',(0.,0.,1.));
#434 = ADVANCED_FACE('stator2-Material domain-SolidShroud',(#435),#465,
  .T.);
#435 = FACE_BOUND('',#436,.T.);
#436 = EDGE_LOOP('',(#437,#438,#448,#457));
#437 = ORIENTED_EDGE('',*,*,#394,.T.);
#438 = ORIENTED_EDGE('',*,*,#439,.T.);
#439 = EDGE_CURVE('',#388,#440,#442,.T.);
#440 = VERTEX_POINT('',#441);
#441 = CARTESIAN_POINT('',(104.43185616736,0.,32.351654235008));
#442 = B_SPLINE_CURVE_WITH_KNOTS('',4,(#443,#444,#445,#446,#447),
  .UNSPECIFIED.,.F.,.F.,(5,5),(0.,1.),.PIECEWISE_BEZIER_KNOTS.);
#443 = CARTESIAN_POINT('',(94.,0.,19.834798067639));
#444 = CARTESIAN_POINT('',(94.777604941858,0.,19.834798067639));
#445 = CARTESIAN_POINT('',(104.43185616736,0.,19.834798067639));
#446 = CARTESIAN_POINT('',(104.43185616736,0.,31.410528738053));
#447 = CARTESIAN_POINT('',(104.43185616736,0.,32.351654235008));
#448 = ORIENTED_EDGE('',*,*,#449,.F.);
#449 = EDGE_CURVE('',#450,#440,#452,.T.);
#450 = VERTEX_POINT('',#451);
#451 = CARTESIAN_POINT('',(-104.4318561673,1.278921383844E-14,
    32.351654235008));
#452 = CIRCLE('',#453,104.43185616736);
#453 = AXIS2_PLACEMENT_3D('',#454,#455,#456);
#454 = CARTESIAN_POINT('',(0.,0.,32.351654235008));
#455 = DIRECTION('',(0.,0.,1.));
#456 = DIRECTION('',(1.,0.,-0.));
#457 = ORIENTED_EDGE('',*,*,#458,.F.);
#458 = EDGE_CURVE('',#395,#450,#459,.T.);
#459 = B_SPLINE_CURVE_WITH_KNOTS('',4,(#460,#461,#462,#463,#464),
  .UNSPECIFIED.,.F.,.F.,(5,5),(0.,1.),.PIECEWISE_BEZIER_KNOTS.);
#460 = CARTESIAN_POINT('',(-94.,1.151167991199E-14,19.834798067639));
#461 = CARTESIAN_POINT('',(-94.77760494185,1.160690905229E-14,
    19.834798067639));
#462 = CARTESIAN_POINT('',(-104.4318561673,1.278921383844E-14,
    19.834798067639));
#463 = CARTESIAN_POINT('',(-104.4318561673,1.278921383844E-14,
    31.410528738053));
#464 = CARTESIAN_POINT('',(-104.4318561673,1.278921383844E-14,
    32.351654235008));
#465 = SURFACE_OF_REVOLUTION('',#466,#472);
#466 = B_SPLINE_CURVE_WITH_KNOTS('',4,(#467,#468,#469,#470,#471),
  .UNSPECIFIED.,.F.,.F.,(5,5),(0.,1.),.PIECEWISE_BEZIER_KNOTS.);
#467 = CARTESIAN_POINT('',(94.,0.,19.834798067639));
#468 = CARTESIAN_POINT('',(94.777604941858,0.,19.834798067639));
#469 = CARTESIAN_POINT('',(104.43185616736,0.,19.834798067639));
#470 = CARTESIAN_POINT('',(104.43185616736,0.,31.410528738053));
#471 = CARTESIAN_POINT('',(104.43185616736,0.,32.351654235008));
#472 = AXIS1_PLACEMENT('',#473,#474);
#473 = CARTESIAN_POINT('',(0.,0.,0.));
#474 = DIRECTION('',(0.,0.,1.));
#475 = ADVANCED_FACE('stator2-Material domain-SolidShroud',(#476),#488,
  .T.);
#476 = FACE_BOUND('',#477,.T.);
#477 = EDGE_LOOP('',(#478,#485,#486,#487));
#478 = ORIENTED_EDGE('',*,*,#479,.F.);
#479 = EDGE_CURVE('',#440,#450,#480,.T.);
#480 = CIRCLE('',#481,104.43185616736);
#481 = AXIS2_PLACEMENT_3D('',#482,#483,#484);
#482 = CARTESIAN_POINT('',(0.,0.,32.351654235008));
#483 = DIRECTION('',(0.,0.,1.));
#484 = DIRECTION('',(1.,0.,-0.));
#485 = ORIENTED_EDGE('',*,*,#439,.F.);
#486 = ORIENTED_EDGE('',*,*,#418,.T.);
#487 = ORIENTED_EDGE('',*,*,#458,.T.);
#488 = SURFACE_OF_REVOLUTION('',#489,#495);
#489 = B_SPLINE_CURVE_WITH_KNOTS('',4,(#490,#491,#492,#493,#494),
  .UNSPECIFIED.,.F.,.F.,(5,5),(0.,1.),.PIECEWISE_BEZIER_KNOTS.);
#490 = CARTESIAN_POINT('',(94.,0.,19.834798067639));
#491 = CARTESIAN_POINT('',(94.777604941858,0.,19.834798067639));
#492 = CARTESIAN_POINT('',(104.43185616736,0.,19.834798067639));
#493 = CARTESIAN_POINT('',(104.43185616736,0.,31.410528738053));
#494 = CARTESIAN_POINT('',(104.43185616736,0.,32.351654235008));
#495 = AXIS1_PLACEMENT('',#496,#497);
#496 = CARTESIAN_POINT('',(0.,0.,0.));
#497 = DIRECTION('',(0.,0.,1.));
#498 = ADVANCED_FACE('stator2-Material domain-SolidShroud',(#499),#513,
  .T.);
#499 = FACE_BOUND('',#500,.T.);
#500 = EDGE_LOOP('',(#501,#502,#507,#508));
#501 = ORIENTED_EDGE('',*,*,#449,.T.);
#502 = ORIENTED_EDGE('',*,*,#503,.T.);
#503 = EDGE_CURVE('',#440,#318,#504,.T.);
#504 = B_SPLINE_CURVE_WITH_KNOTS('',1,(#505,#506),.UNSPECIFIED.,.F.,.F.,
  (2,2),(0.,1.),.PIECEWISE_BEZIER_KNOTS.);
#505 = CARTESIAN_POINT('',(104.43185616736,0.,32.351654235008));
#506 = CARTESIAN_POINT('',(103.915,0.,32.351654235008));
#507 = ORIENTED_EDGE('',*,*,#327,.F.);
#508 = ORIENTED_EDGE('',*,*,#509,.F.);
#509 = EDGE_CURVE('',#450,#328,#510,.T.);
#510 = B_SPLINE_CURVE_WITH_KNOTS('',1,(#511,#512),.UNSPECIFIED.,.F.,.F.,
  (2,2),(0.,1.),.PIECEWISE_BEZIER_KNOTS.);
#511 = CARTESIAN_POINT('',(-104.4318561673,1.278921383844E-14,
    32.351654235008));
#512 = CARTESIAN_POINT('',(-103.915,1.272591721334E-14,32.351654235008)
  );
#513 = SURFACE_OF_REVOLUTION('',#514,#517);
#514 = B_SPLINE_CURVE_WITH_KNOTS('',1,(#515,#516),.UNSPECIFIED.,.F.,.F.,
  (2,2),(0.,1.),.PIECEWISE_BEZIER_KNOTS.);
#515 = CARTESIAN_POINT('',(104.43185616736,0.,32.351654235008));
#516 = CARTESIAN_POINT('',(103.915,0.,32.351654235008));
#517 = AXIS1_PLACEMENT('',#518,#519);
#518 = CARTESIAN_POINT('',(0.,0.,0.));
#519 = DIRECTION('',(0.,0.,1.));
#520 = ADVANCED_FACE('stator2-Material domain-SolidShroud',(#521),#527,
  .T.);
#521 = FACE_BOUND('',#522,.T.);
#522 = EDGE_LOOP('',(#523,#524,#525,#526));
#523 = ORIENTED_EDGE('',*,*,#357,.F.);
#524 = ORIENTED_EDGE('',*,*,#503,.F.);
#525 = ORIENTED_EDGE('',*,*,#479,.T.);
#526 = ORIENTED_EDGE('',*,*,#509,.T.);
#527 = SURFACE_OF_REVOLUTION('',#528,#531);
#528 = B_SPLINE_CURVE_WITH_KNOTS('',1,(#529,#530),.UNSPECIFIED.,.F.,.F.,
  (2,2),(0.,1.),.PIECEWISE_BEZIER_KNOTS.);
#529 = CARTESIAN_POINT('',(104.43185616736,0.,32.351654235008));
#530 = CARTESIAN_POINT('',(103.915,0.,32.351654235008));
#531 = AXIS1_PLACEMENT('',#532,#533);
#532 = CARTESIAN_POINT('',(0.,0.,0.));
#533 = DIRECTION('',(0.,0.,1.));
#534 = ( GEOMETRIC_REPRESENTATION_CONTEXT(3) 
GLOBAL_UNCERTAINTY_ASSIGNED_CONTEXT((#538)) GLOBAL_UNIT_ASSIGNED_CONTEXT
((#535,#536,#537)) REPRESENTATION_CONTEXT('Context #1',
  '3D Context with UNIT and UNCERTAINTY') );
#535 = ( LENGTH_UNIT() NAMED_UNIT(*) SI_UNIT(.MILLI.,.METRE.) );
#536 = ( NAMED_UNIT(*) PLANE_ANGLE_UNIT() SI_UNIT($,.RADIAN.) );
#537 = ( NAMED_UNIT(*) SI_UNIT($,.STERADIAN.) SOLID_ANGLE_UNIT() );
#538 = UNCERTAINTY_MEASURE_WITH_UNIT(LENGTH_MEASURE(1.E-06),#535,
  'distance_accuracy_value','confusion accuracy');
#539 = PRODUCT_RELATED_PRODUCT_CATEGORY('part',$,(#296));
ENDSEC;
END-ISO-10303-21;
