ISO-10303-21;
HEADER;
FILE_DESCRIPTION( ( 'STEP Version 203' ), '1' );
FILE_NAME( 'Z:/Purpl Ansys/Geometry Imports/Axisymmetric_Full_Combustor.stp', '09/23/25 17:30:46', ( 'rjmcm' ), ( '  ' ), 'PSStep 21.0.47', 'DesignModeler STEP Output', '  ' );
FILE_SCHEMA( ( 'CONFIG_CONTROL_DESIGN' ) );
ENDSEC;
DATA;
#1 = DESIGN_CONTEXT( '', #27, 'design' );
#2 = APPLICATION_PROTOCOL_DEFINITION( 'international standard', 'config_control_design', 1994, #27 );
#3 = PRODUCT_CATEGORY_RELATIONSHIP( 'NONE', 'NONE', #28, #29 );
#4 = DATE_AND_TIME( #30, #31 );
#5 = DATE_TIME_ROLE( 'creation_date' );
#6 = DATE_TIME_ROLE( 'classification_date' );
#7 = PERSON_AND_ORGANIZATION_ROLE( 'creator' );
#8 = PERSON_AND_ORGANIZATION_ROLE( 'design_supplier' );
#9 = PERSON_AND_ORGANIZATION_ROLE( 'classification_officer' );
#10 = PERSON_AND_ORGANIZATION_ROLE( 'design_owner' );
#11 = APPROVAL_PERSON_ORGANIZATION( #32, #33, #34 );
#12 = APPROVAL_DATE_TIME( #4, #33 );
#13 = CC_DESIGN_APPROVAL( #33, ( #35, #36, #37 ) );
#14 = CC_DESIGN_DATE_AND_TIME_ASSIGNMENT( #4, #5, ( #37 ) );
#15 = CC_DESIGN_DATE_AND_TIME_ASSIGNMENT( #4, #6, ( #35 ) );
#16 = CC_DESIGN_PERSON_AND_ORGANIZATION_ASSIGNMENT( #32, #10, ( #38 ) );
#17 = CC_DESIGN_PERSON_AND_ORGANIZATION_ASSIGNMENT( #32, #7, ( #37 ) );
#18 = CC_DESIGN_PERSON_AND_ORGANIZATION_ASSIGNMENT( #32, #7, ( #36 ) );
#19 = CC_DESIGN_PERSON_AND_ORGANIZATION_ASSIGNMENT( #32, #8, ( #36 ) );
#20 = CC_DESIGN_SECURITY_CLASSIFICATION( #35, ( #36 ) );
#21 = CC_DESIGN_PERSON_AND_ORGANIZATION_ASSIGNMENT( #32, #9, ( #35 ) );
#22 = SHAPE_DEFINITION_REPRESENTATION( #39, #40 );
#23 =  ( GEOMETRIC_REPRESENTATION_CONTEXT( 3 )GLOBAL_UNCERTAINTY_ASSIGNED_CONTEXT( ( #43 ) )GLOBAL_UNIT_ASSIGNED_CONTEXT( ( #45, #46, #47 ) )REPRESENTATION_CONTEXT( 'NONE', 'WORKSPACE' ) );
#27 = APPLICATION_CONTEXT( 'configuration controlled 3D designs of mechanical parts and assemblies' );
#28 = PRODUCT_CATEGORY( 'part', 'NONE' );
#29 = PRODUCT_RELATED_PRODUCT_CATEGORY( 'detail', ' ', ( #38 ) );
#30 = CALENDAR_DATE( 2025, 23, 8 );
#31 = LOCAL_TIME( 17, 30, 46.0000000000000, #49 );
#32 = PERSON_AND_ORGANIZATION( #50, #51 );
#33 = APPROVAL( #52, 'SOLID MODEL' );
#34 = APPROVAL_ROLE( 'APPROVED' );
#35 = SECURITY_CLASSIFICATION( '', '', #53 );
#36 = PRODUCT_DEFINITION_FORMATION_WITH_SPECIFIED_SOURCE( ' ', 'NONE', #38, .NOT_KNOWN. );
#37 = PRODUCT_DEFINITION( 'NONE', 'NONE', #36, #1 );
#38 = PRODUCT( '1', '1', 'PART-1-DESC', ( #54 ) );
#39 = PRODUCT_DEFINITION_SHAPE( 'NONE', 'NONE', #37 );
#40 = MANIFOLD_SURFACE_SHAPE_REPRESENTATION( '1', ( #55, #56 ), #23 );
#43 = UNCERTAINTY_MEASURE_WITH_UNIT( LENGTH_MEASURE( 1.00000000000000E-06 ), #45, '', '' );
#45 =  ( CONVERSION_BASED_UNIT( 'METRE', #59 )LENGTH_UNIT(  )NAMED_UNIT( #62 ) );
#46 =  ( NAMED_UNIT( #64 )PLANE_ANGLE_UNIT(  )SI_UNIT( $, .RADIAN. ) );
#47 =  ( NAMED_UNIT( #64 )SI_UNIT( $, .STERADIAN. )SOLID_ANGLE_UNIT(  ) );
#49 = COORDINATED_UNIVERSAL_TIME_OFFSET( 5, 0, .BEHIND. );
#50 = PERSON( '', 'UNSPECIFIED', $, $, $, $ );
#51 = ORGANIZATION( 'UNSPECIFIED', 'UNSPECIFIED', 'UNSPECIFIED' );
#52 = APPROVAL_STATUS( 'approved' );
#53 = SECURITY_CLASSIFICATION_LEVEL( 'unclassified' );
#54 = MECHANICAL_CONTEXT( '', #27, 'mechanical' );
#55 = SHELL_BASED_SURFACE_MODEL( '1', ( #70 ) );
#56 = AXIS2_PLACEMENT_3D( '', #71, #72, #73 );
#59 = LENGTH_MEASURE_WITH_UNIT( LENGTH_MEASURE( 1.00000000000000 ), #74 );
#62 = DIMENSIONAL_EXPONENTS( 1.00000000000000, 0.00000000000000, 0.00000000000000, 0.00000000000000, 0.00000000000000, 0.00000000000000, 0.00000000000000 );
#64 = DIMENSIONAL_EXPONENTS( 0.00000000000000, 0.00000000000000, 0.00000000000000, 0.00000000000000, 0.00000000000000, 0.00000000000000, 0.00000000000000 );
#70 = CLOSED_SHELL( '', ( #75 ) );
#71 = CARTESIAN_POINT( '', ( 0.00000000000000, 0.00000000000000, 0.00000000000000 ) );
#72 = DIRECTION( '', ( 0.00000000000000, 0.00000000000000, 1.00000000000000 ) );
#73 = DIRECTION( '', ( 1.00000000000000, 0.00000000000000, 0.00000000000000 ) );
#74 =  ( LENGTH_UNIT(  )NAMED_UNIT( #62 )SI_UNIT( $, .METRE. ) );
#75 = FACE_SURFACE( '', ( #77, #78, #79, #80, #81, #82, #83, #84, #85, #86, #87, #88, #89, #90 ), #91, .T. );
#77 = FACE_BOUND( '', #92, .T. );
#78 = FACE_BOUND( '', #93, .T. );
#79 = FACE_BOUND( '', #94, .T. );
#80 = FACE_BOUND( '', #95, .T. );
#81 = FACE_BOUND( '', #96, .T. );
#82 = FACE_BOUND( '', #97, .T. );
#83 = FACE_BOUND( '', #98, .T. );
#84 = FACE_BOUND( '', #99, .T. );
#85 = FACE_BOUND( '', #100, .T. );
#86 = FACE_BOUND( '', #101, .T. );
#87 = FACE_BOUND( '', #102, .T. );
#88 = FACE_BOUND( '', #103, .T. );
#89 = FACE_BOUND( '', #104, .T. );
#90 = FACE_BOUND( '', #105, .T. );
#91 = PLANE( '', #106 );
#92 = EDGE_LOOP( '', ( #107, #108, #109, #110 ) );
#93 = EDGE_LOOP( '', ( #111, #112, #113, #114 ) );
#94 = EDGE_LOOP( '', ( #115, #116, #117, #118 ) );
#95 = EDGE_LOOP( '', ( #119, #120, #121, #122 ) );
#96 = EDGE_LOOP( '', ( #123, #124, #125, #126 ) );
#97 = EDGE_LOOP( '', ( #127, #128, #129, #130, #131, #132, #133, #134, #135, #136 ) );
#98 = EDGE_LOOP( '', ( #137, #138, #139, #140, #141, #142, #143, #144, #145, #146, #147, #148, #149, #150, #151, #152, #153 ) );
#99 = EDGE_LOOP( '', ( #154, #155, #156, #157, #158, #159, #160, #161, #162 ) );
#100 = EDGE_LOOP( '', ( #163, #164, #165, #166, #167, #168, #169, #170, #171 ) );
#101 = EDGE_LOOP( '', ( #172, #173, #174, #175 ) );
#102 = EDGE_LOOP( '', ( #176, #177, #178, #179 ) );
#103 = EDGE_LOOP( '', ( #180, #181, #182, #183 ) );
#104 = EDGE_LOOP( '', ( #184, #185, #186, #187 ) );
#105 = EDGE_LOOP( '', ( #188, #189, #190, #191 ) );
#106 = AXIS2_PLACEMENT_3D( '', #192, #193, #194 );
#107 = ORIENTED_EDGE( '', *, *, #195, .T. );
#108 = ORIENTED_EDGE( '', *, *, #196, .T. );
#109 = ORIENTED_EDGE( '', *, *, #197, .T. );
#110 = ORIENTED_EDGE( '', *, *, #198, .T. );
#111 = ORIENTED_EDGE( '', *, *, #199, .T. );
#112 = ORIENTED_EDGE( '', *, *, #200, .T. );
#113 = ORIENTED_EDGE( '', *, *, #201, .T. );
#114 = ORIENTED_EDGE( '', *, *, #202, .T. );
#115 = ORIENTED_EDGE( '', *, *, #203, .T. );
#116 = ORIENTED_EDGE( '', *, *, #204, .T. );
#117 = ORIENTED_EDGE( '', *, *, #205, .T. );
#118 = ORIENTED_EDGE( '', *, *, #206, .T. );
#119 = ORIENTED_EDGE( '', *, *, #207, .T. );
#120 = ORIENTED_EDGE( '', *, *, #208, .T. );
#121 = ORIENTED_EDGE( '', *, *, #209, .T. );
#122 = ORIENTED_EDGE( '', *, *, #210, .T. );
#123 = ORIENTED_EDGE( '', *, *, #211, .T. );
#124 = ORIENTED_EDGE( '', *, *, #212, .T. );
#125 = ORIENTED_EDGE( '', *, *, #213, .T. );
#126 = ORIENTED_EDGE( '', *, *, #214, .T. );
#127 = ORIENTED_EDGE( '', *, *, #215, .T. );
#128 = ORIENTED_EDGE( '', *, *, #216, .T. );
#129 = ORIENTED_EDGE( '', *, *, #217, .T. );
#130 = ORIENTED_EDGE( '', *, *, #218, .T. );
#131 = ORIENTED_EDGE( '', *, *, #219, .T. );
#132 = ORIENTED_EDGE( '', *, *, #220, .T. );
#133 = ORIENTED_EDGE( '', *, *, #221, .T. );
#134 = ORIENTED_EDGE( '', *, *, #222, .T. );
#135 = ORIENTED_EDGE( '', *, *, #223, .T. );
#136 = ORIENTED_EDGE( '', *, *, #224, .T. );
#137 = ORIENTED_EDGE( '', *, *, #225, .T. );
#138 = ORIENTED_EDGE( '', *, *, #226, .T. );
#139 = ORIENTED_EDGE( '', *, *, #227, .T. );
#140 = ORIENTED_EDGE( '', *, *, #228, .T. );
#141 = ORIENTED_EDGE( '', *, *, #229, .T. );
#142 = ORIENTED_EDGE( '', *, *, #230, .T. );
#143 = ORIENTED_EDGE( '', *, *, #231, .T. );
#144 = ORIENTED_EDGE( '', *, *, #232, .T. );
#145 = ORIENTED_EDGE( '', *, *, #233, .T. );
#146 = ORIENTED_EDGE( '', *, *, #234, .T. );
#147 = ORIENTED_EDGE( '', *, *, #235, .T. );
#148 = ORIENTED_EDGE( '', *, *, #236, .T. );
#149 = ORIENTED_EDGE( '', *, *, #237, .T. );
#150 = ORIENTED_EDGE( '', *, *, #238, .T. );
#151 = ORIENTED_EDGE( '', *, *, #239, .T. );
#152 = ORIENTED_EDGE( '', *, *, #240, .T. );
#153 = ORIENTED_EDGE( '', *, *, #241, .T. );
#154 = ORIENTED_EDGE( '', *, *, #242, .T. );
#155 = ORIENTED_EDGE( '', *, *, #243, .T. );
#156 = ORIENTED_EDGE( '', *, *, #244, .T. );
#157 = ORIENTED_EDGE( '', *, *, #245, .T. );
#158 = ORIENTED_EDGE( '', *, *, #246, .T. );
#159 = ORIENTED_EDGE( '', *, *, #247, .T. );
#160 = ORIENTED_EDGE( '', *, *, #248, .T. );
#161 = ORIENTED_EDGE( '', *, *, #249, .T. );
#162 = ORIENTED_EDGE( '', *, *, #250, .T. );
#163 = ORIENTED_EDGE( '', *, *, #251, .T. );
#164 = ORIENTED_EDGE( '', *, *, #252, .T. );
#165 = ORIENTED_EDGE( '', *, *, #253, .T. );
#166 = ORIENTED_EDGE( '', *, *, #254, .T. );
#167 = ORIENTED_EDGE( '', *, *, #255, .T. );
#168 = ORIENTED_EDGE( '', *, *, #256, .T. );
#169 = ORIENTED_EDGE( '', *, *, #257, .T. );
#170 = ORIENTED_EDGE( '', *, *, #258, .T. );
#171 = ORIENTED_EDGE( '', *, *, #259, .T. );
#172 = ORIENTED_EDGE( '', *, *, #260, .T. );
#173 = ORIENTED_EDGE( '', *, *, #261, .T. );
#174 = ORIENTED_EDGE( '', *, *, #262, .T. );
#175 = ORIENTED_EDGE( '', *, *, #263, .T. );
#176 = ORIENTED_EDGE( '', *, *, #264, .T. );
#177 = ORIENTED_EDGE( '', *, *, #265, .T. );
#178 = ORIENTED_EDGE( '', *, *, #266, .T. );
#179 = ORIENTED_EDGE( '', *, *, #267, .T. );
#180 = ORIENTED_EDGE( '', *, *, #268, .T. );
#181 = ORIENTED_EDGE( '', *, *, #269, .T. );
#182 = ORIENTED_EDGE( '', *, *, #270, .T. );
#183 = ORIENTED_EDGE( '', *, *, #271, .T. );
#184 = ORIENTED_EDGE( '', *, *, #272, .T. );
#185 = ORIENTED_EDGE( '', *, *, #273, .T. );
#186 = ORIENTED_EDGE( '', *, *, #274, .T. );
#187 = ORIENTED_EDGE( '', *, *, #275, .T. );
#188 = ORIENTED_EDGE( '', *, *, #276, .T. );
#189 = ORIENTED_EDGE( '', *, *, #277, .T. );
#190 = ORIENTED_EDGE( '', *, *, #278, .T. );
#191 = ORIENTED_EDGE( '', *, *, #279, .T. );
#192 = CARTESIAN_POINT( '', ( -0.0626163843356763, 0.0792470215124243, 0.00000000000000 ) );
#193 = DIRECTION( '', ( 0.00000000000000, 0.00000000000000, 1.00000000000000 ) );
#194 = DIRECTION( '', ( 1.00000000000000, 0.00000000000000, -0.00000000000000 ) );
#195 = EDGE_CURVE( '', #280, #281, #282, .T. );
#196 = EDGE_CURVE( '', #281, #283, #284, .F. );
#197 = EDGE_CURVE( '', #283, #285, #286, .F. );
#198 = EDGE_CURVE( '', #285, #280, #287, .F. );
#199 = EDGE_CURVE( '', #288, #289, #290, .T. );
#200 = EDGE_CURVE( '', #289, #291, #292, .T. );
#201 = EDGE_CURVE( '', #291, #293, #294, .T. );
#202 = EDGE_CURVE( '', #293, #288, #295, .F. );
#203 = EDGE_CURVE( '', #296, #297, #298, .T. );
#204 = EDGE_CURVE( '', #297, #299, #300, .F. );
#205 = EDGE_CURVE( '', #299, #301, #302, .F. );
#206 = EDGE_CURVE( '', #301, #296, #303, .F. );
#207 = EDGE_CURVE( '', #304, #305, #306, .T. );
#208 = EDGE_CURVE( '', #305, #307, #308, .F. );
#209 = EDGE_CURVE( '', #307, #309, #310, .F. );
#210 = EDGE_CURVE( '', #309, #304, #311, .F. );
#211 = EDGE_CURVE( '', #312, #313, #314, .T. );
#212 = EDGE_CURVE( '', #313, #315, #316, .T. );
#213 = EDGE_CURVE( '', #315, #317, #318, .T. );
#214 = EDGE_CURVE( '', #317, #312, #319, .F. );
#215 = EDGE_CURVE( '', #320, #321, #322, .T. );
#216 = EDGE_CURVE( '', #321, #323, #324, .F. );
#217 = EDGE_CURVE( '', #323, #325, #326, .T. );
#218 = EDGE_CURVE( '', #325, #327, #328, .F. );
#219 = EDGE_CURVE( '', #327, #329, #330, .F. );
#220 = EDGE_CURVE( '', #329, #331, #332, .F. );
#221 = EDGE_CURVE( '', #331, #333, #334, .F. );
#222 = EDGE_CURVE( '', #333, #335, #336, .T. );
#223 = EDGE_CURVE( '', #335, #337, #338, .T. );
#224 = EDGE_CURVE( '', #337, #320, #339, .F. );
#225 = EDGE_CURVE( '', #340, #341, #342, .F. );
#226 = EDGE_CURVE( '', #341, #343, #344, .T. );
#227 = EDGE_CURVE( '', #343, #345, #346, .F. );
#228 = EDGE_CURVE( '', #345, #347, #348, .T. );
#229 = EDGE_CURVE( '', #347, #349, #350, .T. );
#230 = EDGE_CURVE( '', #349, #351, #352, .F. );
#231 = EDGE_CURVE( '', #351, #353, #354, .F. );
#232 = EDGE_CURVE( '', #353, #355, #356, .T. );
#233 = EDGE_CURVE( '', #355, #357, #358, .F. );
#234 = EDGE_CURVE( '', #357, #359, #360, .T. );
#235 = EDGE_CURVE( '', #359, #361, #362, .F. );
#236 = EDGE_CURVE( '', #361, #363, #364, .F. );
#237 = EDGE_CURVE( '', #363, #365, #366, .F. );
#238 = EDGE_CURVE( '', #365, #367, #368, .T. );
#239 = EDGE_CURVE( '', #367, #369, #370, .T. );
#240 = EDGE_CURVE( '', #369, #371, #372, .F. );
#241 = EDGE_CURVE( '', #371, #340, #373, .F. );
#242 = EDGE_CURVE( '', #374, #375, #376, .T. );
#243 = EDGE_CURVE( '', #375, #377, #378, .T. );
#244 = EDGE_CURVE( '', #377, #379, #380, .F. );
#245 = EDGE_CURVE( '', #379, #381, #382, .F. );
#246 = EDGE_CURVE( '', #381, #383, #384, .F. );
#247 = EDGE_CURVE( '', #383, #385, #386, .T. );
#248 = EDGE_CURVE( '', #385, #387, #388, .F. );
#249 = EDGE_CURVE( '', #387, #389, #390, .F. );
#250 = EDGE_CURVE( '', #389, #374, #391, .F. );
#251 = EDGE_CURVE( '', #392, #393, #394, .T. );
#252 = EDGE_CURVE( '', #393, #395, #396, .T. );
#253 = EDGE_CURVE( '', #395, #397, #398, .F. );
#254 = EDGE_CURVE( '', #397, #399, #400, .F. );
#255 = EDGE_CURVE( '', #399, #401, #402, .T. );
#256 = EDGE_CURVE( '', #401, #403, #404, .T. );
#257 = EDGE_CURVE( '', #403, #405, #406, .F. );
#258 = EDGE_CURVE( '', #405, #407, #408, .T. );
#259 = EDGE_CURVE( '', #407, #392, #409, .F. );
#260 = EDGE_CURVE( '', #410, #411, #412, .T. );
#261 = EDGE_CURVE( '', #411, #413, #414, .F. );
#262 = EDGE_CURVE( '', #413, #415, #416, .F. );
#263 = EDGE_CURVE( '', #415, #410, #417, .F. );
#264 = EDGE_CURVE( '', #418, #419, #420, .T. );
#265 = EDGE_CURVE( '', #419, #421, #422, .T. );
#266 = EDGE_CURVE( '', #421, #423, #424, .T. );
#267 = EDGE_CURVE( '', #423, #418, #425, .F. );
#268 = EDGE_CURVE( '', #426, #427, #428, .T. );
#269 = EDGE_CURVE( '', #427, #429, #430, .T. );
#270 = EDGE_CURVE( '', #429, #431, #432, .T. );
#271 = EDGE_CURVE( '', #431, #426, #433, .F. );
#272 = EDGE_CURVE( '', #434, #435, #436, .T. );
#273 = EDGE_CURVE( '', #435, #437, #438, .F. );
#274 = EDGE_CURVE( '', #437, #439, #440, .F. );
#275 = EDGE_CURVE( '', #439, #434, #441, .F. );
#276 = EDGE_CURVE( '', #442, #443, #444, .T. );
#277 = EDGE_CURVE( '', #443, #445, #446, .T. );
#278 = EDGE_CURVE( '', #445, #447, #448, .T. );
#279 = EDGE_CURVE( '', #447, #442, #449, .F. );
#280 = VERTEX_POINT( '', #450 );
#281 = VERTEX_POINT( '', #451 );
#282 = LINE( '', #452, #453 );
#283 = VERTEX_POINT( '', #454 );
#284 = LINE( '', #455, #456 );
#285 = VERTEX_POINT( '', #457 );
#286 = LINE( '', #458, #459 );
#287 = LINE( '', #460, #461 );
#288 = VERTEX_POINT( '', #462 );
#289 = VERTEX_POINT( '', #463 );
#290 = LINE( '', #464, #465 );
#291 = VERTEX_POINT( '', #466 );
#292 = LINE( '', #467, #468 );
#293 = VERTEX_POINT( '', #469 );
#294 = LINE( '', #470, #471 );
#295 = LINE( '', #472, #473 );
#296 = VERTEX_POINT( '', #474 );
#297 = VERTEX_POINT( '', #475 );
#298 = LINE( '', #476, #477 );
#299 = VERTEX_POINT( '', #478 );
#300 = LINE( '', #479, #480 );
#301 = VERTEX_POINT( '', #481 );
#302 = LINE( '', #482, #483 );
#303 = LINE( '', #484, #485 );
#304 = VERTEX_POINT( '', #486 );
#305 = VERTEX_POINT( '', #487 );
#306 = LINE( '', #488, #489 );
#307 = VERTEX_POINT( '', #490 );
#308 = LINE( '', #491, #492 );
#309 = VERTEX_POINT( '', #493 );
#310 = LINE( '', #494, #495 );
#311 = LINE( '', #496, #497 );
#312 = VERTEX_POINT( '', #498 );
#313 = VERTEX_POINT( '', #499 );
#314 = LINE( '', #500, #501 );
#315 = VERTEX_POINT( '', #502 );
#316 = LINE( '', #503, #504 );
#317 = VERTEX_POINT( '', #505 );
#318 = LINE( '', #506, #507 );
#319 = LINE( '', #508, #509 );
#320 = VERTEX_POINT( '', #510 );
#321 = VERTEX_POINT( '', #511 );
#322 = LINE( '', #512, #513 );
#323 = VERTEX_POINT( '', #514 );
#324 = CIRCLE( '', #515, 0.00635000000000000 );
#325 = VERTEX_POINT( '', #516 );
#326 = CIRCLE( '', #517, 0.00885257190000000 );
#327 = VERTEX_POINT( '', #518 );
#328 = LINE( '', #519, #520 );
#329 = VERTEX_POINT( '', #521 );
#330 = LINE( '', #522, #523 );
#331 = VERTEX_POINT( '', #524 );
#332 = CIRCLE( '', #525, 0.0126236900000000 );
#333 = VERTEX_POINT( '', #526 );
#334 = LINE( '', #527, #528 );
#335 = VERTEX_POINT( '', #529 );
#336 = LINE( '', #530, #531 );
#337 = VERTEX_POINT( '', #532 );
#338 = CIRCLE( '', #533, 0.00885257190000000 );
#339 = CIRCLE( '', #534, 0.00635000000000000 );
#340 = VERTEX_POINT( '', #535 );
#341 = VERTEX_POINT( '', #536 );
#342 = LINE( '', #537, #538 );
#343 = VERTEX_POINT( '', #539 );
#344 = LINE( '', #540, #541 );
#345 = VERTEX_POINT( '', #542 );
#346 = LINE( '', #543, #544 );
#347 = VERTEX_POINT( '', #545 );
#348 = LINE( '', #546, #547 );
#349 = VERTEX_POINT( '', #548 );
#350 = CIRCLE( '', #549, 0.0350000000000000 );
#351 = VERTEX_POINT( '', #550 );
#352 = LINE( '', #551, #552 );
#353 = VERTEX_POINT( '', #553 );
#354 = LINE( '', #554, #555 );
#355 = VERTEX_POINT( '', #556 );
#356 = LINE( '', #557, #558 );
#357 = VERTEX_POINT( '', #559 );
#358 = CIRCLE( '', #560, 0.0334529785000000 );
#359 = VERTEX_POINT( '', #561 );
#360 = LINE( '', #562, #563 );
#361 = VERTEX_POINT( '', #564 );
#362 = LINE( '', #565, #566 );
#363 = VERTEX_POINT( '', #567 );
#364 = LINE( '', #568, #569 );
#365 = VERTEX_POINT( '', #570 );
#366 = LINE( '', #571, #572 );
#367 = VERTEX_POINT( '', #573 );
#368 = LINE( '', #574, #575 );
#369 = VERTEX_POINT( '', #576 );
#370 = LINE( '', #577, #578 );
#371 = VERTEX_POINT( '', #579 );
#372 = LINE( '', #580, #581 );
#373 = LINE( '', #582, #583 );
#374 = VERTEX_POINT( '', #584 );
#375 = VERTEX_POINT( '', #585 );
#376 = LINE( '', #586, #587 );
#377 = VERTEX_POINT( '', #588 );
#378 = CIRCLE( '', #589, 0.00885257190000000 );
#379 = VERTEX_POINT( '', #590 );
#380 = LINE( '', #591, #592 );
#381 = VERTEX_POINT( '', #593 );
#382 = LINE( '', #594, #595 );
#383 = VERTEX_POINT( '', #596 );
#384 = LINE( '', #597, #598 );
#385 = VERTEX_POINT( '', #599 );
#386 = LINE( '', #600, #601 );
#387 = VERTEX_POINT( '', #602 );
#388 = LINE( '', #603, #604 );
#389 = VERTEX_POINT( '', #605 );
#390 = LINE( '', #606, #607 );
#391 = LINE( '', #608, #609 );
#392 = VERTEX_POINT( '', #610 );
#393 = VERTEX_POINT( '', #611 );
#394 = LINE( '', #612, #613 );
#395 = VERTEX_POINT( '', #614 );
#396 = CIRCLE( '', #615, 0.00885257190000000 );
#397 = VERTEX_POINT( '', #616 );
#398 = LINE( '', #617, #618 );
#399 = VERTEX_POINT( '', #619 );
#400 = LINE( '', #620, #621 );
#401 = VERTEX_POINT( '', #622 );
#402 = LINE( '', #623, #624 );
#403 = VERTEX_POINT( '', #625 );
#404 = LINE( '', #626, #627 );
#405 = VERTEX_POINT( '', #628 );
#406 = LINE( '', #629, #630 );
#407 = VERTEX_POINT( '', #631 );
#408 = LINE( '', #632, #633 );
#409 = LINE( '', #634, #635 );
#410 = VERTEX_POINT( '', #636 );
#411 = VERTEX_POINT( '', #637 );
#412 = LINE( '', #638, #639 );
#413 = VERTEX_POINT( '', #640 );
#414 = LINE( '', #641, #642 );
#415 = VERTEX_POINT( '', #643 );
#416 = LINE( '', #644, #645 );
#417 = LINE( '', #646, #647 );
#418 = VERTEX_POINT( '', #648 );
#419 = VERTEX_POINT( '', #649 );
#420 = LINE( '', #650, #651 );
#421 = VERTEX_POINT( '', #652 );
#422 = LINE( '', #653, #654 );
#423 = VERTEX_POINT( '', #655 );
#424 = LINE( '', #656, #657 );
#425 = LINE( '', #658, #659 );
#426 = VERTEX_POINT( '', #660 );
#427 = VERTEX_POINT( '', #661 );
#428 = LINE( '', #662, #663 );
#429 = VERTEX_POINT( '', #664 );
#430 = LINE( '', #665, #666 );
#431 = VERTEX_POINT( '', #667 );
#432 = LINE( '', #668, #669 );
#433 = LINE( '', #670, #671 );
#434 = VERTEX_POINT( '', #672 );
#435 = VERTEX_POINT( '', #673 );
#436 = LINE( '', #674, #675 );
#437 = VERTEX_POINT( '', #676 );
#438 = LINE( '', #677, #678 );
#439 = VERTEX_POINT( '', #679 );
#440 = LINE( '', #680, #681 );
#441 = LINE( '', #682, #683 );
#442 = VERTEX_POINT( '', #684 );
#443 = VERTEX_POINT( '', #685 );
#444 = LINE( '', #686, #687 );
#445 = VERTEX_POINT( '', #688 );
#446 = LINE( '', #689, #690 );
#447 = VERTEX_POINT( '', #691 );
#448 = LINE( '', #692, #693 );
#449 = LINE( '', #694, #695 );
#450 = CARTESIAN_POINT( '', ( 0.0246745000000000, 0.0442973800000000, 0.00000000000000 ) );
#451 = CARTESIAN_POINT( '', ( 0.0390255000000000, 0.0442973800000000, 0.00000000000000 ) );
#452 = CARTESIAN_POINT( '', ( 0.0246745000000000, 0.0442973800000000, 0.00000000000000 ) );
#453 = VECTOR( '', #696, 1.00000000000000 );
#454 = CARTESIAN_POINT( '', ( 0.0390255000000000, 0.0422973800000000, 0.00000000000000 ) );
#455 = CARTESIAN_POINT( '', ( 0.0390255000000000, 0.0422973800000000, 0.00000000000000 ) );
#456 = VECTOR( '', #697, 1.00000000000000 );
#457 = CARTESIAN_POINT( '', ( 0.0246745000000000, 0.0422973800000000, 0.00000000000000 ) );
#458 = CARTESIAN_POINT( '', ( 0.0246745000000000, 0.0422973800000000, 0.00000000000000 ) );
#459 = VECTOR( '', #698, 1.00000000000000 );
#460 = CARTESIAN_POINT( '', ( 0.0246745000000000, 0.0442973800000000, 0.00000000000000 ) );
#461 = VECTOR( '', #699, 1.00000000000000 );
#462 = CARTESIAN_POINT( '', ( 0.105334000000000, 0.0190500000000000, 0.00000000000000 ) );
#463 = CARTESIAN_POINT( '', ( 0.105334000000000, 0.0210500000000000, 0.00000000000000 ) );
#464 = CARTESIAN_POINT( '', ( 0.105334000000000, 0.0190500000000000, 0.00000000000000 ) );
#465 = VECTOR( '', #700, 1.00000000000000 );
#466 = CARTESIAN_POINT( '', ( 0.122966000000000, 0.0210500000000000, 0.00000000000000 ) );
#467 = CARTESIAN_POINT( '', ( 0.105334000000000, 0.0210500000000000, 0.00000000000000 ) );
#468 = VECTOR( '', #701, 1.00000000000000 );
#469 = CARTESIAN_POINT( '', ( 0.122966000000000, 0.0190500000000000, 0.00000000000000 ) );
#470 = CARTESIAN_POINT( '', ( 0.122966000000000, 0.0210500000000000, 0.00000000000000 ) );
#471 = VECTOR( '', #702, 1.00000000000000 );
#472 = CARTESIAN_POINT( '', ( 0.105334000000000, 0.0190500000000000, 0.00000000000000 ) );
#473 = VECTOR( '', #703, 1.00000000000000 );
#474 = CARTESIAN_POINT( '', ( 0.0618160000000000, 0.0442973800000000, 0.00000000000000 ) );
#475 = CARTESIAN_POINT( '', ( 0.0801840000000000, 0.0442973800000000, 0.00000000000000 ) );
#476 = CARTESIAN_POINT( '', ( 0.0618160000000000, 0.0442973800000000, 0.00000000000000 ) );
#477 = VECTOR( '', #704, 1.00000000000000 );
#478 = CARTESIAN_POINT( '', ( 0.0801840000000000, 0.0422973800000000, 0.00000000000000 ) );
#479 = CARTESIAN_POINT( '', ( 0.0801840000000000, 0.0422973800000000, 0.00000000000000 ) );
#480 = VECTOR( '', #705, 1.00000000000000 );
#481 = CARTESIAN_POINT( '', ( 0.0618160000000000, 0.0422973800000000, 0.00000000000000 ) );
#482 = CARTESIAN_POINT( '', ( 0.0618160000000000, 0.0422973800000000, 0.00000000000000 ) );
#483 = VECTOR( '', #706, 1.00000000000000 );
#484 = CARTESIAN_POINT( '', ( 0.0618160000000000, 0.0442973800000000, 0.00000000000000 ) );
#485 = VECTOR( '', #707, 1.00000000000000 );
#486 = CARTESIAN_POINT( '', ( 0.0405745000000000, 0.0442973800000000, 0.00000000000000 ) );
#487 = CARTESIAN_POINT( '', ( 0.0601840000000000, 0.0442973800000000, 0.00000000000000 ) );
#488 = CARTESIAN_POINT( '', ( 0.0405745000000000, 0.0442973800000000, 0.00000000000000 ) );
#489 = VECTOR( '', #708, 1.00000000000000 );
#490 = CARTESIAN_POINT( '', ( 0.0601840000000000, 0.0422973800000000, 0.00000000000000 ) );
#491 = CARTESIAN_POINT( '', ( 0.0601840000000000, 0.0422973800000000, 0.00000000000000 ) );
#492 = VECTOR( '', #709, 1.00000000000000 );
#493 = CARTESIAN_POINT( '', ( 0.0405745000000000, 0.0422973800000000, 0.00000000000000 ) );
#494 = CARTESIAN_POINT( '', ( 0.0405745000000000, 0.0422973800000000, 0.00000000000000 ) );
#495 = VECTOR( '', #710, 1.00000000000000 );
#496 = CARTESIAN_POINT( '', ( 0.0405745000000000, 0.0442973800000000, 0.00000000000000 ) );
#497 = VECTOR( '', #711, 1.00000000000000 );
#498 = CARTESIAN_POINT( '', ( 0.0817095000000000, 0.0190500000000000, 0.00000000000000 ) );
#499 = CARTESIAN_POINT( '', ( 0.0817095000000000, 0.0210500000000000, 0.00000000000000 ) );
#500 = CARTESIAN_POINT( '', ( 0.0817095000000000, 0.0190500000000000, 0.00000000000000 ) );
#501 = VECTOR( '', #712, 1.00000000000000 );
#502 = CARTESIAN_POINT( '', ( 0.103466000000000, 0.0210500000000000, 0.00000000000000 ) );
#503 = CARTESIAN_POINT( '', ( 0.0817095000000000, 0.0210500000000000, 0.00000000000000 ) );
#504 = VECTOR( '', #713, 1.00000000000000 );
#505 = CARTESIAN_POINT( '', ( 0.103466000000000, 0.0190500000000000, 0.00000000000000 ) );
#506 = CARTESIAN_POINT( '', ( 0.103466000000000, 0.0210500000000000, 0.00000000000000 ) );
#507 = VECTOR( '', #714, 1.00000000000000 );
#508 = CARTESIAN_POINT( '', ( 0.0817095000000000, 0.0190500000000000, 0.00000000000000 ) );
#509 = VECTOR( '', #715, 1.00000000000000 );
#510 = CARTESIAN_POINT( '', ( 0.0104964730534998, 0.0317031900000000, 0.00000000000000 ) );
#511 = CARTESIAN_POINT( '', ( 0.0104964730534998, 0.0316441900000000, 0.00000000000000 ) );
#512 = CARTESIAN_POINT( '', ( 0.0104964730534998, 0.0317031900000000, 0.00000000000000 ) );
#513 = VECTOR( '', #716, 1.00000000000000 );
#514 = CARTESIAN_POINT( '', ( 0.00253483207799520, 0.0255316306963761, 0.00000000000000 ) );
#515 = AXIS2_PLACEMENT_3D( '', #717, #718, #719 );
#516 = CARTESIAN_POINT( '', ( 0.00262079315680301, 0.0254436385712562, 0.00000000000000 ) );
#517 = AXIS2_PLACEMENT_3D( '', #720, #721, #722 );
#518 = CARTESIAN_POINT( '', ( -0.00180424389830318, 0.0210706097076378, 0.00000000000000 ) );
#519 = CARTESIAN_POINT( '', ( -0.00180424389830318, 0.0210706097076378, 0.00000000000000 ) );
#520 = VECTOR( '', #723, 1.00000000000000 );
#521 = CARTESIAN_POINT( '', ( -0.00343831334099176, 0.0226801517005710, 0.00000000000000 ) );
#522 = CARTESIAN_POINT( '', ( -0.00343831334099207, 0.0226801517005707, 0.00000000000000 ) );
#523 = VECTOR( '', #724, 1.00000000000000 );
#524 = CARTESIAN_POINT( '', ( -0.00345314398670414, 0.0406525961311970, 0.00000000000000 ) );
#525 = AXIS2_PLACEMENT_3D( '', #725, #726, #727 );
#526 = CARTESIAN_POINT( '', ( -0.00182173311711456, 0.0422648327593408, 0.00000000000000 ) );
#527 = CARTESIAN_POINT( '', ( -0.00182173311711456, 0.0422648327593408, 0.00000000000000 ) );
#528 = VECTOR( '', #728, 1.00000000000000 );
#529 = CARTESIAN_POINT( '', ( 0.00261340100303202, 0.0378962701853302, 0.00000000000000 ) );
#530 = CARTESIAN_POINT( '', ( -0.00182173311711456, 0.0422648327593408, 0.00000000000000 ) );
#531 = VECTOR( '', #729, 1.00000000000000 );
#532 = CARTESIAN_POINT( '', ( 0.00253483207799519, 0.0378157493036239, 0.00000000000000 ) );
#533 = AXIS2_PLACEMENT_3D( '', #730, #731, #732 );
#534 = AXIS2_PLACEMENT_3D( '', #733, #734, #735 );
#535 = CARTESIAN_POINT( '', ( 0.125013000000000, 0.0422973800000000, 0.00000000000000 ) );
#536 = CARTESIAN_POINT( '', ( 0.125013000000000, 0.0442973800000000, 0.00000000000000 ) );
#537 = CARTESIAN_POINT( '', ( 0.125013000000000, 0.0442973800000000, 0.00000000000000 ) );
#538 = VECTOR( '', #736, 1.00000000000000 );
#539 = CARTESIAN_POINT( '', ( 0.141800000000000, 0.0442973800000000, 0.00000000000000 ) );
#540 = CARTESIAN_POINT( '', ( 0.125013000000000, 0.0442973800000000, 0.00000000000000 ) );
#541 = VECTOR( '', #737, 1.00000000000000 );
#542 = CARTESIAN_POINT( '', ( 0.141800000000000, 0.0877000000000000, 0.00000000000000 ) );
#543 = CARTESIAN_POINT( '', ( 0.141800000000000, 0.0877000000000000, 0.00000000000000 ) );
#544 = VECTOR( '', #738, 1.00000000000000 );
#545 = CARTESIAN_POINT( '', ( -0.00970970702153951, 0.0877000000000000, 0.00000000000000 ) );
#546 = CARTESIAN_POINT( '', ( 0.141800000000000, 0.0877000000000000, 0.00000000000000 ) );
#547 = VECTOR( '', #739, 1.00000000000000 );
#548 = CARTESIAN_POINT( '', ( -0.0447097070215396, 0.122700000000000, 0.00000000000000 ) );
#549 = AXIS2_PLACEMENT_3D( '', #740, #741, #742 );
#550 = CARTESIAN_POINT( '', ( -0.0664728731264443, 0.122700000000000, 0.00000000000000 ) );
#551 = CARTESIAN_POINT( '', ( -0.0664728731264443, 0.122700000000000, 0.00000000000000 ) );
#552 = VECTOR( '', #743, 1.00000000000000 );
#553 = CARTESIAN_POINT( '', ( -0.0664728731264443, 0.112700000000000, 0.00000000000000 ) );
#554 = CARTESIAN_POINT( '', ( -0.0664728731264443, 0.112700000000000, 0.00000000000000 ) );
#555 = VECTOR( '', #744, 1.00000000000000 );
#556 = CARTESIAN_POINT( '', ( -0.0626163843356763, 0.112700000000000, 0.00000000000000 ) );
#557 = CARTESIAN_POINT( '', ( -0.0664728731264443, 0.112700000000000, 0.00000000000000 ) );
#558 = VECTOR( '', #745, 1.00000000000000 );
#559 = CARTESIAN_POINT( '', ( -0.0297097070215395, 0.0852680146060493, 0.00000000000000 ) );
#560 = AXIS2_PLACEMENT_3D( '', #746, #747, #748 );
#561 = CARTESIAN_POINT( '', ( -0.0164318087217498, 0.0127000000000000, 0.00000000000000 ) );
#562 = CARTESIAN_POINT( '', ( -0.0297097070215395, 0.0852680146060493, 0.00000000000000 ) );
#563 = VECTOR( '', #749, 1.00000000000000 );
#564 = CARTESIAN_POINT( '', ( 0.141800000000000, 0.0127000000000000, 0.00000000000000 ) );
#565 = CARTESIAN_POINT( '', ( 0.141800000000000, 0.0127000000000000, 0.00000000000000 ) );
#566 = VECTOR( '', #750, 1.00000000000000 );
#567 = CARTESIAN_POINT( '', ( 0.141800000000000, 0.0190500000000000, 0.00000000000000 ) );
#568 = CARTESIAN_POINT( '', ( 0.141800000000000, 0.0190500000000000, 0.00000000000000 ) );
#569 = VECTOR( '', #751, 1.00000000000000 );
#570 = CARTESIAN_POINT( '', ( 0.124834000000000, 0.0190500000000000, 0.00000000000000 ) );
#571 = CARTESIAN_POINT( '', ( 0.124834000000000, 0.0190500000000000, 0.00000000000000 ) );
#572 = VECTOR( '', #752, 1.00000000000000 );
#573 = CARTESIAN_POINT( '', ( 0.124834000000000, 0.0210500000000000, 0.00000000000000 ) );
#574 = CARTESIAN_POINT( '', ( 0.124834000000000, 0.0190500000000000, 0.00000000000000 ) );
#575 = VECTOR( '', #753, 1.00000000000000 );
#576 = CARTESIAN_POINT( '', ( 0.141800000000000, 0.0210500000000000, 0.00000000000000 ) );
#577 = CARTESIAN_POINT( '', ( 0.124834000000000, 0.0210500000000000, 0.00000000000000 ) );
#578 = VECTOR( '', #754, 1.00000000000000 );
#579 = CARTESIAN_POINT( '', ( 0.141800000000000, 0.0422973800000000, 0.00000000000000 ) );
#580 = CARTESIAN_POINT( '', ( 0.141800000000000, 0.0422973800000000, 0.00000000000000 ) );
#581 = VECTOR( '', #755, 1.00000000000000 );
#582 = CARTESIAN_POINT( '', ( 0.125013000000000, 0.0422973800000000, 0.00000000000000 ) );
#583 = VECTOR( '', #756, 1.00000000000000 );
#584 = CARTESIAN_POINT( '', ( -0.00163406944268889, 0.0206595419929328, 0.00000000000000 ) );
#585 = CARTESIAN_POINT( '', ( 0.00291756413721246, 0.0251576794714777, 0.00000000000000 ) );
#586 = CARTESIAN_POINT( '', ( -0.00163406944268889, 0.0206595419929328, 0.00000000000000 ) );
#587 = VECTOR( '', #757, 1.00000000000000 );
#588 = CARTESIAN_POINT( '', ( 0.00691002907313715, 0.0230500000000000, 0.00000000000000 ) );
#589 = AXIS2_PLACEMENT_3D( '', #758, #759, #760 );
#590 = CARTESIAN_POINT( '', ( 0.0110579645336838, 0.0230500000000000, 0.00000000000000 ) );
#591 = CARTESIAN_POINT( '', ( 0.0110579645336838, 0.0230500000000000, 0.00000000000000 ) );
#592 = VECTOR( '', #761, 1.00000000000000 );
#593 = CARTESIAN_POINT( '', ( 0.0110579645336838, 0.0210500000000000, 0.00000000000000 ) );
#594 = CARTESIAN_POINT( '', ( 0.0110579645336838, 0.0210500000000000, 0.00000000000000 ) );
#595 = VECTOR( '', #762, 1.00000000000000 );
#596 = CARTESIAN_POINT( '', ( 0.0231905000000000, 0.0210500000000000, 0.00000000000000 ) );
#597 = CARTESIAN_POINT( '', ( 0.0231905000000000, 0.0210500000000000, 0.00000000000000 ) );
#598 = VECTOR( '', #763, 1.00000000000000 );
#599 = CARTESIAN_POINT( '', ( 0.0231905000000000, 0.0190500000000000, 0.00000000000000 ) );
#600 = CARTESIAN_POINT( '', ( 0.0231905000000000, 0.0210500000000000, 0.00000000000000 ) );
#601 = VECTOR( '', #764, 1.00000000000000 );
#602 = CARTESIAN_POINT( '', ( 0.00799999999999999, 0.0190500000000000, 0.00000000000000 ) );
#603 = CARTESIAN_POINT( '', ( 0.00799999999999999, 0.0190500000000000, 0.00000000000000 ) );
#604 = VECTOR( '', #765, 1.00000000000000 );
#605 = CARTESIAN_POINT( '', ( -1.01870270286109E-17, 0.0190500000000000, 0.00000000000000 ) );
#606 = CARTESIAN_POINT( '', ( -1.01870270286109E-17, 0.0190500000000000, 0.00000000000000 ) );
#607 = VECTOR( '', #766, 1.00000000000000 );
#608 = CARTESIAN_POINT( '', ( -0.00163406944268889, 0.0206595419929328, 0.00000000000000 ) );
#609 = VECTOR( '', #767, 1.00000000000000 );
#610 = CARTESIAN_POINT( '', ( 0.0110579645336838, 0.0402973800000000, 0.00000000000000 ) );
#611 = CARTESIAN_POINT( '', ( 0.00691002907313715, 0.0402973800000000, 0.00000000000000 ) );
#612 = CARTESIAN_POINT( '', ( 0.0110579645336838, 0.0402973800000000, 0.00000000000000 ) );
#613 = VECTOR( '', #768, 1.00000000000000 );
#614 = CARTESIAN_POINT( '', ( 0.00292531185492701, 0.0381968172434438, 0.00000000000000 ) );
#615 = AXIS2_PLACEMENT_3D( '', #769, #770, #771 );
#616 = CARTESIAN_POINT( '', ( -0.00163141086958959, 0.0426851433718562, 0.00000000000000 ) );
#617 = CARTESIAN_POINT( '', ( -0.00163141086958959, 0.0426851433718562, 0.00000000000000 ) );
#618 = VECTOR( '', #772, 1.00000000000000 );
#619 = CARTESIAN_POINT( '', ( -1.01870270286110E-17, 0.0442973800000000, 0.00000000000000 ) );
#620 = CARTESIAN_POINT( '', ( -1.01870270286110E-17, 0.0442973800000000, 0.00000000000000 ) );
#621 = VECTOR( '', #773, 1.00000000000000 );
#622 = CARTESIAN_POINT( '', ( 0.00799999999999999, 0.0442973800000000, 0.00000000000000 ) );
#623 = CARTESIAN_POINT( '', ( -1.01870270286110E-17, 0.0442973800000000, 0.00000000000000 ) );
#624 = VECTOR( '', #774, 1.00000000000000 );
#625 = CARTESIAN_POINT( '', ( 0.0231255000000000, 0.0442973800000000, 0.00000000000000 ) );
#626 = CARTESIAN_POINT( '', ( 0.00799999999999999, 0.0442973800000000, 0.00000000000000 ) );
#627 = VECTOR( '', #775, 1.00000000000000 );
#628 = CARTESIAN_POINT( '', ( 0.0231255000000000, 0.0422973800000000, 0.00000000000000 ) );
#629 = CARTESIAN_POINT( '', ( 0.0231255000000000, 0.0422973800000000, 0.00000000000000 ) );
#630 = VECTOR( '', #776, 1.00000000000000 );
#631 = CARTESIAN_POINT( '', ( 0.0110579645336838, 0.0422973800000000, 0.00000000000000 ) );
#632 = CARTESIAN_POINT( '', ( 0.0231255000000000, 0.0422973800000000, 0.00000000000000 ) );
#633 = VECTOR( '', #777, 1.00000000000000 );
#634 = CARTESIAN_POINT( '', ( 0.0110579645336838, 0.0402973800000000, 0.00000000000000 ) );
#635 = VECTOR( '', #778, 1.00000000000000 );
#636 = CARTESIAN_POINT( '', ( 0.0818160000000000, 0.0442973800000000, 0.00000000000000 ) );
#637 = CARTESIAN_POINT( '', ( 0.103287000000000, 0.0442973800000000, 0.00000000000000 ) );
#638 = CARTESIAN_POINT( '', ( 0.0818160000000000, 0.0442973800000000, 0.00000000000000 ) );
#639 = VECTOR( '', #779, 1.00000000000000 );
#640 = CARTESIAN_POINT( '', ( 0.103287000000000, 0.0422973800000000, 0.00000000000000 ) );
#641 = CARTESIAN_POINT( '', ( 0.103287000000000, 0.0422973800000000, 0.00000000000000 ) );
#642 = VECTOR( '', #780, 1.00000000000000 );
#643 = CARTESIAN_POINT( '', ( 0.0818160000000000, 0.0422973800000000, 0.00000000000000 ) );
#644 = CARTESIAN_POINT( '', ( 0.0818160000000000, 0.0422973800000000, 0.00000000000000 ) );
#645 = VECTOR( '', #781, 1.00000000000000 );
#646 = CARTESIAN_POINT( '', ( 0.0818160000000000, 0.0442973800000000, 0.00000000000000 ) );
#647 = VECTOR( '', #782, 1.00000000000000 );
#648 = CARTESIAN_POINT( '', ( 0.0405295000000000, 0.0190500000000000, 0.00000000000000 ) );
#649 = CARTESIAN_POINT( '', ( 0.0405295000000000, 0.0210500000000000, 0.00000000000000 ) );
#650 = CARTESIAN_POINT( '', ( 0.0405295000000000, 0.0190500000000000, 0.00000000000000 ) );
#651 = VECTOR( '', #783, 1.00000000000000 );
#652 = CARTESIAN_POINT( '', ( 0.0602705000000000, 0.0210500000000000, 0.00000000000000 ) );
#653 = CARTESIAN_POINT( '', ( 0.0405295000000000, 0.0210500000000000, 0.00000000000000 ) );
#654 = VECTOR( '', #784, 1.00000000000000 );
#655 = CARTESIAN_POINT( '', ( 0.0602705000000000, 0.0190500000000000, 0.00000000000000 ) );
#656 = CARTESIAN_POINT( '', ( 0.0602705000000000, 0.0210500000000000, 0.00000000000000 ) );
#657 = VECTOR( '', #785, 1.00000000000000 );
#658 = CARTESIAN_POINT( '', ( 0.0405295000000000, 0.0190500000000000, 0.00000000000000 ) );
#659 = VECTOR( '', #786, 1.00000000000000 );
#660 = CARTESIAN_POINT( '', ( 0.0617295000000000, 0.0190500000000000, 0.00000000000000 ) );
#661 = CARTESIAN_POINT( '', ( 0.0617295000000000, 0.0210500000000000, 0.00000000000000 ) );
#662 = CARTESIAN_POINT( '', ( 0.0617295000000000, 0.0190500000000000, 0.00000000000000 ) );
#663 = VECTOR( '', #787, 1.00000000000000 );
#664 = CARTESIAN_POINT( '', ( 0.0802905000000000, 0.0210500000000000, 0.00000000000000 ) );
#665 = CARTESIAN_POINT( '', ( 0.0617295000000000, 0.0210500000000000, 0.00000000000000 ) );
#666 = VECTOR( '', #788, 1.00000000000000 );
#667 = CARTESIAN_POINT( '', ( 0.0802905000000000, 0.0190500000000000, 0.00000000000000 ) );
#668 = CARTESIAN_POINT( '', ( 0.0802905000000000, 0.0210500000000000, 0.00000000000000 ) );
#669 = VECTOR( '', #789, 1.00000000000000 );
#670 = CARTESIAN_POINT( '', ( 0.0617295000000000, 0.0190500000000000, 0.00000000000000 ) );
#671 = VECTOR( '', #790, 1.00000000000000 );
#672 = CARTESIAN_POINT( '', ( 0.105513000000000, 0.0442973800000000, 0.00000000000000 ) );
#673 = CARTESIAN_POINT( '', ( 0.122787000000000, 0.0442973800000000, 0.00000000000000 ) );
#674 = CARTESIAN_POINT( '', ( 0.105513000000000, 0.0442973800000000, 0.00000000000000 ) );
#675 = VECTOR( '', #791, 1.00000000000000 );
#676 = CARTESIAN_POINT( '', ( 0.122787000000000, 0.0422973800000000, 0.00000000000000 ) );
#677 = CARTESIAN_POINT( '', ( 0.122787000000000, 0.0422973800000000, 0.00000000000000 ) );
#678 = VECTOR( '', #792, 1.00000000000000 );
#679 = CARTESIAN_POINT( '', ( 0.105513000000000, 0.0422973800000000, 0.00000000000000 ) );
#680 = CARTESIAN_POINT( '', ( 0.105513000000000, 0.0422973800000000, 0.00000000000000 ) );
#681 = VECTOR( '', #793, 1.00000000000000 );
#682 = CARTESIAN_POINT( '', ( 0.105513000000000, 0.0442973800000000, 0.00000000000000 ) );
#683 = VECTOR( '', #794, 1.00000000000000 );
#684 = CARTESIAN_POINT( '', ( 0.0246095000000000, 0.0190500000000000, 0.00000000000000 ) );
#685 = CARTESIAN_POINT( '', ( 0.0246095000000000, 0.0210500000000000, 0.00000000000000 ) );
#686 = CARTESIAN_POINT( '', ( 0.0246095000000000, 0.0190500000000000, 0.00000000000000 ) );
#687 = VECTOR( '', #795, 1.00000000000000 );
#688 = CARTESIAN_POINT( '', ( 0.0390705000000000, 0.0210500000000000, 0.00000000000000 ) );
#689 = CARTESIAN_POINT( '', ( 0.0246095000000000, 0.0210500000000000, 0.00000000000000 ) );
#690 = VECTOR( '', #796, 1.00000000000000 );
#691 = CARTESIAN_POINT( '', ( 0.0390705000000000, 0.0190500000000000, 0.00000000000000 ) );
#692 = CARTESIAN_POINT( '', ( 0.0390705000000000, 0.0210500000000000, 0.00000000000000 ) );
#693 = VECTOR( '', #797, 1.00000000000000 );
#694 = CARTESIAN_POINT( '', ( 0.0246095000000000, 0.0190500000000000, 0.00000000000000 ) );
#695 = VECTOR( '', #798, 1.00000000000000 );
#696 = DIRECTION( '', ( 1.00000000000000, 0.00000000000000, 0.00000000000000 ) );
#697 = DIRECTION( '', ( 0.00000000000000, 1.00000000000000, 0.00000000000000 ) );
#698 = DIRECTION( '', ( 1.00000000000000, 0.00000000000000, 0.00000000000000 ) );
#699 = DIRECTION( '', ( 0.00000000000000, -1.00000000000000, 0.00000000000000 ) );
#700 = DIRECTION( '', ( 0.00000000000000, 1.00000000000000, 0.00000000000000 ) );
#701 = DIRECTION( '', ( 1.00000000000000, 0.00000000000000, 0.00000000000000 ) );
#702 = DIRECTION( '', ( 0.00000000000000, -1.00000000000000, 0.00000000000000 ) );
#703 = DIRECTION( '', ( 1.00000000000000, 0.00000000000000, 0.00000000000000 ) );
#704 = DIRECTION( '', ( 1.00000000000000, 0.00000000000000, 0.00000000000000 ) );
#705 = DIRECTION( '', ( 0.00000000000000, 1.00000000000000, 0.00000000000000 ) );
#706 = DIRECTION( '', ( 1.00000000000000, 0.00000000000000, 0.00000000000000 ) );
#707 = DIRECTION( '', ( 0.00000000000000, -1.00000000000000, 0.00000000000000 ) );
#708 = DIRECTION( '', ( 1.00000000000000, 0.00000000000000, 0.00000000000000 ) );
#709 = DIRECTION( '', ( 0.00000000000000, 1.00000000000000, 0.00000000000000 ) );
#710 = DIRECTION( '', ( 1.00000000000000, 0.00000000000000, 0.00000000000000 ) );
#711 = DIRECTION( '', ( 0.00000000000000, -1.00000000000000, 0.00000000000000 ) );
#712 = DIRECTION( '', ( 0.00000000000000, 1.00000000000000, 0.00000000000000 ) );
#713 = DIRECTION( '', ( 1.00000000000000, 0.00000000000000, 0.00000000000000 ) );
#714 = DIRECTION( '', ( 0.00000000000000, -1.00000000000000, 0.00000000000000 ) );
#715 = DIRECTION( '', ( 1.00000000000000, 0.00000000000000, 0.00000000000000 ) );
#716 = DIRECTION( '', ( 0.00000000000000, -1.00000000000000, 0.00000000000000 ) );
#717 = CARTESIAN_POINT( '', ( 0.00414654157749158, 0.0316736900000000, 0.00000000000000 ) );
#718 = DIRECTION( '', ( 0.00000000000000, 0.00000000000000, 1.00000000000000 ) );
#719 = DIRECTION( '', ( 1.00000000000000, 0.00000000000000, 0.00000000000000 ) );
#720 = CARTESIAN_POINT( '', ( 0.00891002907313715, 0.0316736900000000, 0.00000000000000 ) );
#721 = DIRECTION( '', ( 0.00000000000000, 0.00000000000000, 1.00000000000000 ) );
#722 = DIRECTION( '', ( 1.00000000000000, 0.00000000000000, 0.00000000000000 ) );
#723 = DIRECTION( '', ( 0.711274289149696, 0.702914564932748, 0.00000000000000 ) );
#724 = DIRECTION( '', ( 0.712433393043514, -0.701739738419100, 0.00000000000000 ) );
#725 = CARTESIAN_POINT( '', ( 0.00542023157749208, 0.0316736900000005, 0.00000000000000 ) );
#726 = DIRECTION( '', ( 0.00000000000000, 0.00000000000000, 1.00000000000000 ) );
#727 = DIRECTION( '', ( 1.00000000000000, 0.00000000000000, 0.00000000000000 ) );
#728 = DIRECTION( '', ( -0.711274289149695, -0.702914564932749, 0.00000000000000 ) );
#729 = DIRECTION( '', ( 0.712433393043514, -0.701739738419099, 0.00000000000000 ) );
#730 = CARTESIAN_POINT( '', ( 0.00891002907313715, 0.0316736900000000, 0.00000000000000 ) );
#731 = DIRECTION( '', ( 0.00000000000000, 0.00000000000000, 1.00000000000000 ) );
#732 = DIRECTION( '', ( 1.00000000000000, 0.00000000000000, 0.00000000000000 ) );
#733 = CARTESIAN_POINT( '', ( 0.00414654157749158, 0.0316736900000000, 0.00000000000000 ) );
#734 = DIRECTION( '', ( 0.00000000000000, 0.00000000000000, 1.00000000000000 ) );
#735 = DIRECTION( '', ( 1.00000000000000, 0.00000000000000, 0.00000000000000 ) );
#736 = DIRECTION( '', ( 0.00000000000000, -1.00000000000000, 0.00000000000000 ) );
#737 = DIRECTION( '', ( 1.00000000000000, 4.13349252630442E-16, 0.00000000000000 ) );
#738 = DIRECTION( '', ( 0.00000000000000, -1.00000000000000, 0.00000000000000 ) );
#739 = DIRECTION( '', ( -1.00000000000000, -9.15966909357267E-17, 0.00000000000000 ) );
#740 = CARTESIAN_POINT( '', ( -0.0447097070215396, 0.0876999999999999, 0.00000000000000 ) );
#741 = DIRECTION( '', ( 0.00000000000000, 0.00000000000000, 1.00000000000000 ) );
#742 = DIRECTION( '', ( 1.00000000000000, 0.00000000000000, 0.00000000000000 ) );
#743 = DIRECTION( '', ( 1.00000000000000, 0.00000000000000, 0.00000000000000 ) );
#744 = DIRECTION( '', ( 0.00000000000000, 1.00000000000000, 0.00000000000000 ) );
#745 = DIRECTION( '', ( 1.00000000000000, 0.00000000000000, 0.00000000000000 ) );
#746 = CARTESIAN_POINT( '', ( -0.0626163843356763, 0.0792470215124243, 0.00000000000000 ) );
#747 = DIRECTION( '', ( 0.00000000000000, 0.00000000000000, 1.00000000000000 ) );
#748 = DIRECTION( '', ( 1.00000000000000, 0.00000000000000, 0.00000000000000 ) );
#749 = DIRECTION( '', ( 0.179983767240971, -0.983669580463759, 0.00000000000000 ) );
#750 = DIRECTION( '', ( -1.00000000000000, -1.75410847160554E-16, 0.00000000000000 ) );
#751 = DIRECTION( '', ( 0.00000000000000, -1.00000000000000, 0.00000000000000 ) );
#752 = DIRECTION( '', ( 1.00000000000000, 0.00000000000000, 0.00000000000000 ) );
#753 = DIRECTION( '', ( 0.00000000000000, 1.00000000000000, 0.00000000000000 ) );
#754 = DIRECTION( '', ( 1.00000000000000, 0.00000000000000, 0.00000000000000 ) );
#755 = DIRECTION( '', ( 0.00000000000000, -1.00000000000000, 0.00000000000000 ) );
#756 = DIRECTION( '', ( 1.00000000000000, 0.00000000000000, 0.00000000000000 ) );
#757 = DIRECTION( '', ( 0.711274289149697, 0.702914564932747, 0.00000000000000 ) );
#758 = CARTESIAN_POINT( '', ( 0.00891002907313715, 0.0316736900000000, 0.00000000000000 ) );
#759 = DIRECTION( '', ( 0.00000000000000, 0.00000000000000, 1.00000000000000 ) );
#760 = DIRECTION( '', ( 1.00000000000000, 0.00000000000000, 0.00000000000000 ) );
#761 = DIRECTION( '', ( -1.00000000000000, 0.00000000000000, 0.00000000000000 ) );
#762 = DIRECTION( '', ( 0.00000000000000, 1.00000000000000, 0.00000000000000 ) );
#763 = DIRECTION( '', ( -1.00000000000000, 0.00000000000000, 0.00000000000000 ) );
#764 = DIRECTION( '', ( 0.00000000000000, -1.00000000000000, 0.00000000000000 ) );
#765 = DIRECTION( '', ( 1.00000000000000, 0.00000000000000, 0.00000000000000 ) );
#766 = DIRECTION( '', ( 1.00000000000000, 0.00000000000000, 0.00000000000000 ) );
#767 = DIRECTION( '', ( 0.712433393043514, -0.701739738419099, 0.00000000000000 ) );
#768 = DIRECTION( '', ( -1.00000000000000, 0.00000000000000, 0.00000000000000 ) );
#769 = CARTESIAN_POINT( '', ( 0.00891002907313715, 0.0316736900000000, 0.00000000000000 ) );
#770 = DIRECTION( '', ( 0.00000000000000, 0.00000000000000, 1.00000000000000 ) );
#771 = DIRECTION( '', ( 1.00000000000000, 0.00000000000000, 0.00000000000000 ) );
#772 = DIRECTION( '', ( 0.712433393043514, -0.701739738419099, 0.00000000000000 ) );
#773 = DIRECTION( '', ( -0.711274289149696, -0.702914564932748, 0.00000000000000 ) );
#774 = DIRECTION( '', ( 1.00000000000000, 0.00000000000000, 0.00000000000000 ) );
#775 = DIRECTION( '', ( 1.00000000000000, 0.00000000000000, 0.00000000000000 ) );
#776 = DIRECTION( '', ( 0.00000000000000, 1.00000000000000, 0.00000000000000 ) );
#777 = DIRECTION( '', ( -1.00000000000000, 0.00000000000000, 0.00000000000000 ) );
#778 = DIRECTION( '', ( 0.00000000000000, 1.00000000000000, 0.00000000000000 ) );
#779 = DIRECTION( '', ( 1.00000000000000, 0.00000000000000, 0.00000000000000 ) );
#780 = DIRECTION( '', ( 0.00000000000000, 1.00000000000000, 0.00000000000000 ) );
#781 = DIRECTION( '', ( 1.00000000000000, 0.00000000000000, 0.00000000000000 ) );
#782 = DIRECTION( '', ( 0.00000000000000, -1.00000000000000, 0.00000000000000 ) );
#783 = DIRECTION( '', ( 0.00000000000000, 1.00000000000000, 0.00000000000000 ) );
#784 = DIRECTION( '', ( 1.00000000000000, 0.00000000000000, 0.00000000000000 ) );
#785 = DIRECTION( '', ( 0.00000000000000, -1.00000000000000, 0.00000000000000 ) );
#786 = DIRECTION( '', ( 1.00000000000000, 0.00000000000000, 0.00000000000000 ) );
#787 = DIRECTION( '', ( 0.00000000000000, 1.00000000000000, 0.00000000000000 ) );
#788 = DIRECTION( '', ( 1.00000000000000, 0.00000000000000, 0.00000000000000 ) );
#789 = DIRECTION( '', ( 0.00000000000000, -1.00000000000000, 0.00000000000000 ) );
#790 = DIRECTION( '', ( 1.00000000000000, 0.00000000000000, 0.00000000000000 ) );
#791 = DIRECTION( '', ( 1.00000000000000, 0.00000000000000, 0.00000000000000 ) );
#792 = DIRECTION( '', ( 0.00000000000000, 1.00000000000000, 0.00000000000000 ) );
#793 = DIRECTION( '', ( 1.00000000000000, 0.00000000000000, 0.00000000000000 ) );
#794 = DIRECTION( '', ( 0.00000000000000, -1.00000000000000, 0.00000000000000 ) );
#795 = DIRECTION( '', ( 1.73472347597681E-15, 1.00000000000000, 0.00000000000000 ) );
#796 = DIRECTION( '', ( 1.00000000000000, 0.00000000000000, 0.00000000000000 ) );
#797 = DIRECTION( '', ( 0.00000000000000, -1.00000000000000, 0.00000000000000 ) );
#798 = DIRECTION( '', ( 1.00000000000000, 0.00000000000000, 0.00000000000000 ) );
ENDSEC;
END-ISO-10303-21;
