ISO-10303-21;
HEADER;
/* Generated by software containing ST-Developer
 * from STEP Tools, Inc. (www.steptools.com) 
 */
/* OPTION: using custom schema-name function */

FILE_DESCRIPTION(
/* description */ (''),
/* implementation_level */ '2;1');

FILE_NAME(
/* name */ 'rim_seal_proto.stp',
/* time_stamp */ '2025-10-05T12:42:59-04:00',
/* author */ (''),
/* organization */ (''),
/* preprocessor_version */ 'ST-DEVELOPER v19.4',
/* originating_system */ 'SIEMENS PLM Software NX2306.8900',
/* authorisation */ '');

FILE_SCHEMA (('AUTOMOTIVE_DESIGN { 1 0 10303 214 3 1 1 1 }'));
ENDSEC;

DATA;
#10=SHAPE_REPRESENTATION_RELATIONSHIP('None',
'relationship between rim_seal_proto-None and rim_seal_proto-None',#22,
#11);
#11=ADVANCED_BREP_SHAPE_REPRESENTATION('rim_seal_proto-None',(#46,#47,#48),
#737);
#12=SHAPE_DEFINITION_REPRESENTATION(#13,#22);
#13=PRODUCT_DEFINITION_SHAPE('','',#14);
#14=PRODUCT_DEFINITION(' ','',#16,#15);
#15=PRODUCT_DEFINITION_CONTEXT('part definition',#21,'design');
#16=PRODUCT_DEFINITION_FORMATION_WITH_SPECIFIED_SOURCE(' ',' ',#18,
 .NOT_KNOWN.);
#17=PRODUCT_RELATED_PRODUCT_CATEGORY('part','',(#18));
#18=PRODUCT('rim_seal_proto','rim_seal_proto',' ',(#19));
#19=PRODUCT_CONTEXT(' ',#21,'mechanical');
#20=APPLICATION_PROTOCOL_DEFINITION('international standard',
'automotive_design',2010,#21);
#21=APPLICATION_CONTEXT(
'core data for automotive mechanical design processes');
#22=SHAPE_REPRESENTATION('rim_seal_proto-None',(#426),#737);
#23=PRESENTATION_LAYER_ASSIGNMENT('1','Layer 1',(#46,#47,#48));
#24=STYLED_ITEM('',(#27),#46);
#25=STYLED_ITEM('',(#28),#47);
#26=STYLED_ITEM('',(#29),#48);
#27=PRESENTATION_STYLE_ASSIGNMENT((#30));
#28=PRESENTATION_STYLE_ASSIGNMENT((#31));
#29=PRESENTATION_STYLE_ASSIGNMENT((#32));
#30=SURFACE_STYLE_USAGE(.BOTH.,#33);
#31=SURFACE_STYLE_USAGE(.BOTH.,#34);
#32=SURFACE_STYLE_USAGE(.BOTH.,#35);
#33=SURFACE_SIDE_STYLE('',(#36));
#34=SURFACE_SIDE_STYLE('',(#37));
#35=SURFACE_SIDE_STYLE('',(#38));
#36=SURFACE_STYLE_FILL_AREA(#39);
#37=SURFACE_STYLE_FILL_AREA(#40);
#38=SURFACE_STYLE_FILL_AREA(#41);
#39=FILL_AREA_STYLE('',(#42));
#40=FILL_AREA_STYLE('',(#43));
#41=FILL_AREA_STYLE('',(#44));
#42=FILL_AREA_STYLE_COLOUR('',#45);
#43=FILL_AREA_STYLE_COLOUR('',#45);
#44=FILL_AREA_STYLE_COLOUR('',#45);
#45=COLOUR_RGB('medium steel',0.611764705882353,0.658823529411765,0.670588235294118);
#46=MANIFOLD_SOLID_BREP('',#49);
#47=MANIFOLD_SOLID_BREP('',#50);
#48=MANIFOLD_SOLID_BREP('',#51);
#49=CLOSED_SHELL('',(#75,#76,#77,#78,#79,#80,#81,#82,#83,#84,#85,#86,#87,
#88,#89,#90,#91,#92,#93));
#50=CLOSED_SHELL('',(#94,#95,#96,#97,#98,#99,#100,#101,#102,#103,#104));
#51=CLOSED_SHELL('',(#105,#106,#107,#108));
#52=TOROIDAL_SURFACE('',#437,193.159281885828,45.3149641683949);
#53=TOROIDAL_SURFACE('',#441,234.38285117425,48.1437477035309);
#54=TOROIDAL_SURFACE('',#453,347.405640110522,50.1224581322924);
#55=TOROIDAL_SURFACE('',#455,472.69258324889,75.1682329563612);
#56=TOROIDAL_SURFACE('',#459,517.567375701723,66.364367393607);
#57=TOROIDAL_SURFACE('',#471,370.719037306691,83.6143818030412);
#58=CYLINDRICAL_SURFACE('',#435,147.844317717433);
#59=CYLINDRICAL_SURFACE('',#443,282.526598877781);
#60=CYLINDRICAL_SURFACE('',#447,397.526598877781);
#61=CYLINDRICAL_SURFACE('',#451,347.405640110522);
#62=CYLINDRICAL_SURFACE('',#464,671.325918559298);
#63=CYLINDRICAL_SURFACE('',#469,454.333419109732);
#64=CYLINDRICAL_SURFACE('',#475,206.884626037186);
#65=CYLINDRICAL_SURFACE('',#481,90.2203591263189);
#66=CYLINDRICAL_SURFACE('',#485,627.980814350983);
#67=CYLINDRICAL_SURFACE('',#489,839.82060571528);
#68=CYLINDRICAL_SURFACE('',#492,671.325918559298);
#69=CONICAL_SURFACE('',#431,78.3305008034731,0.840188848997008);
#70=CONICAL_SURFACE('',#433,73.9416556449122,88.969935817332);
#71=CONICAL_SURFACE('',#449,397.526598877781,66.9954910966428);
#72=CONICAL_SURFACE('',#461,580.532361773717,18.4179620378435);
#73=CONICAL_SURFACE('',#477,206.884626037186,41.1284784119025);
#74=CONICAL_SURFACE('',#486,627.980814350983,23.0121134445899);
#75=ADVANCED_FACE('',(#120,#121),#109,.F.);
#76=ADVANCED_FACE('',(#122,#123),#69,.F.);
#77=ADVANCED_FACE('',(#124,#125),#70,.T.);
#78=ADVANCED_FACE('',(#126,#127),#58,.T.);
#79=ADVANCED_FACE('',(#128,#129),#52,.F.);
#80=ADVANCED_FACE('',(#130,#131),#110,.F.);
#81=ADVANCED_FACE('',(#132,#133),#53,.F.);
#82=ADVANCED_FACE('',(#134,#135),#59,.F.);
#83=ADVANCED_FACE('',(#136,#137),#111,.F.);
#84=ADVANCED_FACE('',(#138,#139),#60,.T.);
#85=ADVANCED_FACE('',(#140,#141),#71,.T.);
#86=ADVANCED_FACE('',(#142,#143),#61,.T.);
#87=ADVANCED_FACE('',(#144,#145),#54,.T.);
#88=ADVANCED_FACE('',(#146,#147),#55,.F.);
#89=ADVANCED_FACE('',(#148,#149),#112,.F.);
#90=ADVANCED_FACE('',(#150,#151),#56,.F.);
#91=ADVANCED_FACE('',(#152,#153),#72,.F.);
#92=ADVANCED_FACE('',(#154,#155),#113,.F.);
#93=ADVANCED_FACE('',(#156,#157),#62,.T.);
#94=ADVANCED_FACE('',(#158,#159),#114,.T.);
#95=ADVANCED_FACE('',(#160,#161),#63,.F.);
#96=ADVANCED_FACE('',(#162,#163),#57,.F.);
#97=ADVANCED_FACE('',(#164,#165),#115,.T.);
#98=ADVANCED_FACE('',(#166,#167),#64,.T.);
#99=ADVANCED_FACE('',(#168,#169),#73,.T.);
#100=ADVANCED_FACE('',(#170,#171),#116,.T.);
#101=ADVANCED_FACE('',(#172,#173),#65,.F.);
#102=ADVANCED_FACE('',(#174,#175),#117,.T.);
#103=ADVANCED_FACE('',(#176,#177),#66,.T.);
#104=ADVANCED_FACE('',(#178,#179),#74,.T.);
#105=ADVANCED_FACE('',(#180,#181),#67,.T.);
#106=ADVANCED_FACE('',(#182,#183),#68,.F.);
#107=ADVANCED_FACE('',(#184,#185),#118,.F.);
#108=ADVANCED_FACE('',(#186,#187),#119,.T.);
#109=PLANE('',#429);
#110=PLANE('',#439);
#111=PLANE('',#445);
#112=PLANE('',#457);
#113=PLANE('',#463);
#114=PLANE('',#467);
#115=PLANE('',#473);
#116=PLANE('',#479);
#117=PLANE('',#483);
#118=PLANE('',#493);
#119=PLANE('',#494);
#120=FACE_BOUND('',#188,.T.);
#121=FACE_BOUND('',#189,.T.);
#122=FACE_BOUND('',#190,.T.);
#123=FACE_BOUND('',#191,.T.);
#124=FACE_BOUND('',#192,.T.);
#125=FACE_BOUND('',#193,.T.);
#126=FACE_BOUND('',#194,.T.);
#127=FACE_BOUND('',#195,.T.);
#128=FACE_BOUND('',#196,.T.);
#129=FACE_BOUND('',#197,.T.);
#130=FACE_BOUND('',#198,.T.);
#131=FACE_BOUND('',#199,.T.);
#132=FACE_BOUND('',#200,.T.);
#133=FACE_BOUND('',#201,.T.);
#134=FACE_BOUND('',#202,.T.);
#135=FACE_BOUND('',#203,.T.);
#136=FACE_BOUND('',#204,.T.);
#137=FACE_BOUND('',#205,.T.);
#138=FACE_BOUND('',#206,.T.);
#139=FACE_BOUND('',#207,.T.);
#140=FACE_BOUND('',#208,.T.);
#141=FACE_BOUND('',#209,.T.);
#142=FACE_BOUND('',#210,.T.);
#143=FACE_BOUND('',#211,.T.);
#144=FACE_BOUND('',#212,.T.);
#145=FACE_BOUND('',#213,.T.);
#146=FACE_BOUND('',#214,.T.);
#147=FACE_BOUND('',#215,.T.);
#148=FACE_BOUND('',#216,.T.);
#149=FACE_BOUND('',#217,.T.);
#150=FACE_BOUND('',#218,.T.);
#151=FACE_BOUND('',#219,.T.);
#152=FACE_BOUND('',#220,.T.);
#153=FACE_BOUND('',#221,.T.);
#154=FACE_BOUND('',#222,.T.);
#155=FACE_BOUND('',#223,.T.);
#156=FACE_BOUND('',#224,.T.);
#157=FACE_BOUND('',#225,.T.);
#158=FACE_BOUND('',#226,.T.);
#159=FACE_BOUND('',#227,.T.);
#160=FACE_BOUND('',#228,.T.);
#161=FACE_BOUND('',#229,.T.);
#162=FACE_BOUND('',#230,.T.);
#163=FACE_BOUND('',#231,.T.);
#164=FACE_BOUND('',#232,.T.);
#165=FACE_BOUND('',#233,.T.);
#166=FACE_BOUND('',#234,.T.);
#167=FACE_BOUND('',#235,.T.);
#168=FACE_BOUND('',#236,.T.);
#169=FACE_BOUND('',#237,.T.);
#170=FACE_BOUND('',#238,.T.);
#171=FACE_BOUND('',#239,.T.);
#172=FACE_BOUND('',#240,.T.);
#173=FACE_BOUND('',#241,.T.);
#174=FACE_BOUND('',#242,.T.);
#175=FACE_BOUND('',#243,.T.);
#176=FACE_BOUND('',#244,.T.);
#177=FACE_BOUND('',#245,.T.);
#178=FACE_BOUND('',#246,.T.);
#179=FACE_BOUND('',#247,.T.);
#180=FACE_BOUND('',#248,.T.);
#181=FACE_BOUND('',#249,.T.);
#182=FACE_BOUND('',#250,.T.);
#183=FACE_BOUND('',#251,.T.);
#184=FACE_BOUND('',#252,.T.);
#185=FACE_BOUND('',#253,.T.);
#186=FACE_BOUND('',#254,.T.);
#187=FACE_BOUND('',#255,.T.);
#188=EDGE_LOOP('',(#256));
#189=EDGE_LOOP('',(#257));
#190=EDGE_LOOP('',(#258));
#191=EDGE_LOOP('',(#259));
#192=EDGE_LOOP('',(#260));
#193=EDGE_LOOP('',(#261));
#194=EDGE_LOOP('',(#262));
#195=EDGE_LOOP('',(#263));
#196=EDGE_LOOP('',(#264));
#197=EDGE_LOOP('',(#265));
#198=EDGE_LOOP('',(#266));
#199=EDGE_LOOP('',(#267));
#200=EDGE_LOOP('',(#268));
#201=EDGE_LOOP('',(#269));
#202=EDGE_LOOP('',(#270));
#203=EDGE_LOOP('',(#271));
#204=EDGE_LOOP('',(#272));
#205=EDGE_LOOP('',(#273));
#206=EDGE_LOOP('',(#274));
#207=EDGE_LOOP('',(#275));
#208=EDGE_LOOP('',(#276));
#209=EDGE_LOOP('',(#277));
#210=EDGE_LOOP('',(#278));
#211=EDGE_LOOP('',(#279));
#212=EDGE_LOOP('',(#280));
#213=EDGE_LOOP('',(#281));
#214=EDGE_LOOP('',(#282));
#215=EDGE_LOOP('',(#283));
#216=EDGE_LOOP('',(#284));
#217=EDGE_LOOP('',(#285));
#218=EDGE_LOOP('',(#286));
#219=EDGE_LOOP('',(#287));
#220=EDGE_LOOP('',(#288));
#221=EDGE_LOOP('',(#289));
#222=EDGE_LOOP('',(#290));
#223=EDGE_LOOP('',(#291));
#224=EDGE_LOOP('',(#292));
#225=EDGE_LOOP('',(#293));
#226=EDGE_LOOP('',(#294));
#227=EDGE_LOOP('',(#295));
#228=EDGE_LOOP('',(#296));
#229=EDGE_LOOP('',(#297));
#230=EDGE_LOOP('',(#298));
#231=EDGE_LOOP('',(#299));
#232=EDGE_LOOP('',(#300));
#233=EDGE_LOOP('',(#301));
#234=EDGE_LOOP('',(#302));
#235=EDGE_LOOP('',(#303));
#236=EDGE_LOOP('',(#304));
#237=EDGE_LOOP('',(#305));
#238=EDGE_LOOP('',(#306));
#239=EDGE_LOOP('',(#307));
#240=EDGE_LOOP('',(#308));
#241=EDGE_LOOP('',(#309));
#242=EDGE_LOOP('',(#310));
#243=EDGE_LOOP('',(#311));
#244=EDGE_LOOP('',(#312));
#245=EDGE_LOOP('',(#313));
#246=EDGE_LOOP('',(#314));
#247=EDGE_LOOP('',(#315));
#248=EDGE_LOOP('',(#316));
#249=EDGE_LOOP('',(#317));
#250=EDGE_LOOP('',(#318));
#251=EDGE_LOOP('',(#319));
#252=EDGE_LOOP('',(#320));
#253=EDGE_LOOP('',(#321));
#254=EDGE_LOOP('',(#322));
#255=EDGE_LOOP('',(#323));
#256=ORIENTED_EDGE('',*,*,#358,.F.);
#257=ORIENTED_EDGE('',*,*,#359,.T.);
#258=ORIENTED_EDGE('',*,*,#360,.F.);
#259=ORIENTED_EDGE('',*,*,#358,.T.);
#260=ORIENTED_EDGE('',*,*,#361,.F.);
#261=ORIENTED_EDGE('',*,*,#360,.T.);
#262=ORIENTED_EDGE('',*,*,#362,.F.);
#263=ORIENTED_EDGE('',*,*,#361,.T.);
#264=ORIENTED_EDGE('',*,*,#363,.F.);
#265=ORIENTED_EDGE('',*,*,#362,.T.);
#266=ORIENTED_EDGE('',*,*,#364,.F.);
#267=ORIENTED_EDGE('',*,*,#363,.T.);
#268=ORIENTED_EDGE('',*,*,#365,.F.);
#269=ORIENTED_EDGE('',*,*,#364,.T.);
#270=ORIENTED_EDGE('',*,*,#366,.F.);
#271=ORIENTED_EDGE('',*,*,#365,.T.);
#272=ORIENTED_EDGE('',*,*,#367,.F.);
#273=ORIENTED_EDGE('',*,*,#366,.T.);
#274=ORIENTED_EDGE('',*,*,#368,.F.);
#275=ORIENTED_EDGE('',*,*,#367,.T.);
#276=ORIENTED_EDGE('',*,*,#369,.F.);
#277=ORIENTED_EDGE('',*,*,#368,.T.);
#278=ORIENTED_EDGE('',*,*,#370,.F.);
#279=ORIENTED_EDGE('',*,*,#369,.T.);
#280=ORIENTED_EDGE('',*,*,#371,.F.);
#281=ORIENTED_EDGE('',*,*,#370,.T.);
#282=ORIENTED_EDGE('',*,*,#372,.F.);
#283=ORIENTED_EDGE('',*,*,#371,.T.);
#284=ORIENTED_EDGE('',*,*,#373,.F.);
#285=ORIENTED_EDGE('',*,*,#372,.T.);
#286=ORIENTED_EDGE('',*,*,#374,.F.);
#287=ORIENTED_EDGE('',*,*,#373,.T.);
#288=ORIENTED_EDGE('',*,*,#375,.F.);
#289=ORIENTED_EDGE('',*,*,#374,.T.);
#290=ORIENTED_EDGE('',*,*,#376,.F.);
#291=ORIENTED_EDGE('',*,*,#375,.T.);
#292=ORIENTED_EDGE('',*,*,#359,.F.);
#293=ORIENTED_EDGE('',*,*,#376,.T.);
#294=ORIENTED_EDGE('',*,*,#377,.T.);
#295=ORIENTED_EDGE('',*,*,#378,.F.);
#296=ORIENTED_EDGE('',*,*,#379,.T.);
#297=ORIENTED_EDGE('',*,*,#377,.F.);
#298=ORIENTED_EDGE('',*,*,#380,.T.);
#299=ORIENTED_EDGE('',*,*,#379,.F.);
#300=ORIENTED_EDGE('',*,*,#381,.T.);
#301=ORIENTED_EDGE('',*,*,#380,.F.);
#302=ORIENTED_EDGE('',*,*,#382,.T.);
#303=ORIENTED_EDGE('',*,*,#381,.F.);
#304=ORIENTED_EDGE('',*,*,#383,.T.);
#305=ORIENTED_EDGE('',*,*,#382,.F.);
#306=ORIENTED_EDGE('',*,*,#384,.T.);
#307=ORIENTED_EDGE('',*,*,#383,.F.);
#308=ORIENTED_EDGE('',*,*,#385,.T.);
#309=ORIENTED_EDGE('',*,*,#384,.F.);
#310=ORIENTED_EDGE('',*,*,#386,.T.);
#311=ORIENTED_EDGE('',*,*,#385,.F.);
#312=ORIENTED_EDGE('',*,*,#387,.T.);
#313=ORIENTED_EDGE('',*,*,#386,.F.);
#314=ORIENTED_EDGE('',*,*,#378,.T.);
#315=ORIENTED_EDGE('',*,*,#387,.F.);
#316=ORIENTED_EDGE('',*,*,#388,.T.);
#317=ORIENTED_EDGE('',*,*,#389,.F.);
#318=ORIENTED_EDGE('',*,*,#390,.F.);
#319=ORIENTED_EDGE('',*,*,#391,.T.);
#320=ORIENTED_EDGE('',*,*,#388,.F.);
#321=ORIENTED_EDGE('',*,*,#390,.T.);
#322=ORIENTED_EDGE('',*,*,#389,.T.);
#323=ORIENTED_EDGE('',*,*,#391,.F.);
#324=VERTEX_POINT('',#635);
#325=VERTEX_POINT('',#637);
#326=VERTEX_POINT('',#640);
#327=VERTEX_POINT('',#643);
#328=VERTEX_POINT('',#646);
#329=VERTEX_POINT('',#649);
#330=VERTEX_POINT('',#652);
#331=VERTEX_POINT('',#655);
#332=VERTEX_POINT('',#658);
#333=VERTEX_POINT('',#661);
#334=VERTEX_POINT('',#664);
#335=VERTEX_POINT('',#667);
#336=VERTEX_POINT('',#670);
#337=VERTEX_POINT('',#673);
#338=VERTEX_POINT('',#676);
#339=VERTEX_POINT('',#679);
#340=VERTEX_POINT('',#682);
#341=VERTEX_POINT('',#685);
#342=VERTEX_POINT('',#688);
#343=VERTEX_POINT('',#692);
#344=VERTEX_POINT('',#694);
#345=VERTEX_POINT('',#697);
#346=VERTEX_POINT('',#700);
#347=VERTEX_POINT('',#703);
#348=VERTEX_POINT('',#706);
#349=VERTEX_POINT('',#709);
#350=VERTEX_POINT('',#712);
#351=VERTEX_POINT('',#715);
#352=VERTEX_POINT('',#718);
#353=VERTEX_POINT('',#721);
#354=VERTEX_POINT('',#725);
#355=VERTEX_POINT('',#727);
#356=VERTEX_POINT('',#730);
#357=VERTEX_POINT('',#732);
#358=EDGE_CURVE('',#324,#324,#392,.T.);
#359=EDGE_CURVE('',#325,#325,#393,.T.);
#360=EDGE_CURVE('',#326,#326,#394,.T.);
#361=EDGE_CURVE('',#327,#327,#395,.T.);
#362=EDGE_CURVE('',#328,#328,#396,.T.);
#363=EDGE_CURVE('',#329,#329,#397,.T.);
#364=EDGE_CURVE('',#330,#330,#398,.T.);
#365=EDGE_CURVE('',#331,#331,#399,.T.);
#366=EDGE_CURVE('',#332,#332,#400,.T.);
#367=EDGE_CURVE('',#333,#333,#401,.T.);
#368=EDGE_CURVE('',#334,#334,#402,.T.);
#369=EDGE_CURVE('',#335,#335,#403,.T.);
#370=EDGE_CURVE('',#336,#336,#404,.T.);
#371=EDGE_CURVE('',#337,#337,#405,.T.);
#372=EDGE_CURVE('',#338,#338,#406,.T.);
#373=EDGE_CURVE('',#339,#339,#407,.T.);
#374=EDGE_CURVE('',#340,#340,#408,.T.);
#375=EDGE_CURVE('',#341,#341,#409,.T.);
#376=EDGE_CURVE('',#342,#342,#410,.T.);
#377=EDGE_CURVE('',#343,#343,#411,.T.);
#378=EDGE_CURVE('',#344,#344,#412,.T.);
#379=EDGE_CURVE('',#345,#345,#413,.T.);
#380=EDGE_CURVE('',#346,#346,#414,.T.);
#381=EDGE_CURVE('',#347,#347,#415,.T.);
#382=EDGE_CURVE('',#348,#348,#416,.T.);
#383=EDGE_CURVE('',#349,#349,#417,.T.);
#384=EDGE_CURVE('',#350,#350,#418,.T.);
#385=EDGE_CURVE('',#351,#351,#419,.T.);
#386=EDGE_CURVE('',#352,#352,#420,.T.);
#387=EDGE_CURVE('',#353,#353,#421,.T.);
#388=EDGE_CURVE('',#354,#354,#422,.T.);
#389=EDGE_CURVE('',#355,#355,#423,.T.);
#390=EDGE_CURVE('',#356,#356,#424,.T.);
#391=EDGE_CURVE('',#357,#357,#425,.T.);
#392=CIRCLE('',#427,78.3305008034731);
#393=CIRCLE('',#428,671.325918559298);
#394=CIRCLE('',#430,73.9416556449122);
#395=CIRCLE('',#432,147.844317717433);
#396=CIRCLE('',#434,147.844317717434);
#397=CIRCLE('',#436,193.159281885828);
#398=CIRCLE('',#438,234.38285117425);
#399=CIRCLE('',#440,282.526598877781);
#400=CIRCLE('',#442,282.526598877781);
#401=CIRCLE('',#444,397.526598877781);
#402=CIRCLE('',#446,397.526598877781);
#403=CIRCLE('',#448,347.405640110522);
#404=CIRCLE('',#450,347.405640110522);
#405=CIRCLE('',#452,397.526598877781);
#406=CIRCLE('',#454,472.69258324889);
#407=CIRCLE('',#456,517.567375701723);
#408=CIRCLE('',#458,580.532361773717);
#409=CIRCLE('',#460,617.853212120415);
#410=CIRCLE('',#462,671.325918559298);
#411=CIRCLE('',#465,454.333419109732);
#412=CIRCLE('',#466,512.768294993244);
#413=CIRCLE('',#468,454.333419109732);
#414=CIRCLE('',#470,400.960843940292);
#415=CIRCLE('',#472,206.884626037186);
#416=CIRCLE('',#474,206.884626037186);
#417=CIRCLE('',#476,166.86110288699);
#418=CIRCLE('',#478,90.2203591263189);
#419=CIRCLE('',#480,90.2203591263189);
#420=CIRCLE('',#482,627.980814350983);
#421=CIRCLE('',#484,627.980814350983);
#422=CIRCLE('',#487,839.82060571528);
#423=CIRCLE('',#488,839.82060571528);
#424=CIRCLE('',#490,671.325918559298);
#425=CIRCLE('',#491,671.325918559298);
#426=AXIS2_PLACEMENT_3D('',#633,#495,#496);
#427=AXIS2_PLACEMENT_3D('',#634,#497,#498);
#428=AXIS2_PLACEMENT_3D('',#636,#499,#500);
#429=AXIS2_PLACEMENT_3D('',#638,#501,#502);
#430=AXIS2_PLACEMENT_3D('',#639,#503,#504);
#431=AXIS2_PLACEMENT_3D('',#641,#505,#506);
#432=AXIS2_PLACEMENT_3D('',#642,#507,#508);
#433=AXIS2_PLACEMENT_3D('',#644,#509,#510);
#434=AXIS2_PLACEMENT_3D('',#645,#511,#512);
#435=AXIS2_PLACEMENT_3D('',#647,#513,#514);
#436=AXIS2_PLACEMENT_3D('',#648,#515,#516);
#437=AXIS2_PLACEMENT_3D('',#650,#517,#518);
#438=AXIS2_PLACEMENT_3D('',#651,#519,#520);
#439=AXIS2_PLACEMENT_3D('',#653,#521,#522);
#440=AXIS2_PLACEMENT_3D('',#654,#523,#524);
#441=AXIS2_PLACEMENT_3D('',#656,#525,#526);
#442=AXIS2_PLACEMENT_3D('',#657,#527,#528);
#443=AXIS2_PLACEMENT_3D('',#659,#529,#530);
#444=AXIS2_PLACEMENT_3D('',#660,#531,#532);
#445=AXIS2_PLACEMENT_3D('',#662,#533,#534);
#446=AXIS2_PLACEMENT_3D('',#663,#535,#536);
#447=AXIS2_PLACEMENT_3D('',#665,#537,#538);
#448=AXIS2_PLACEMENT_3D('',#666,#539,#540);
#449=AXIS2_PLACEMENT_3D('',#668,#541,#542);
#450=AXIS2_PLACEMENT_3D('',#669,#543,#544);
#451=AXIS2_PLACEMENT_3D('',#671,#545,#546);
#452=AXIS2_PLACEMENT_3D('',#672,#547,#548);
#453=AXIS2_PLACEMENT_3D('',#674,#549,#550);
#454=AXIS2_PLACEMENT_3D('',#675,#551,#552);
#455=AXIS2_PLACEMENT_3D('',#677,#553,#554);
#456=AXIS2_PLACEMENT_3D('',#678,#555,#556);
#457=AXIS2_PLACEMENT_3D('',#680,#557,#558);
#458=AXIS2_PLACEMENT_3D('',#681,#559,#560);
#459=AXIS2_PLACEMENT_3D('',#683,#561,#562);
#460=AXIS2_PLACEMENT_3D('',#684,#563,#564);
#461=AXIS2_PLACEMENT_3D('',#686,#565,#566);
#462=AXIS2_PLACEMENT_3D('',#687,#567,#568);
#463=AXIS2_PLACEMENT_3D('',#689,#569,#570);
#464=AXIS2_PLACEMENT_3D('',#690,#571,#572);
#465=AXIS2_PLACEMENT_3D('',#691,#573,#574);
#466=AXIS2_PLACEMENT_3D('',#693,#575,#576);
#467=AXIS2_PLACEMENT_3D('',#695,#577,#578);
#468=AXIS2_PLACEMENT_3D('',#696,#579,#580);
#469=AXIS2_PLACEMENT_3D('',#698,#581,#582);
#470=AXIS2_PLACEMENT_3D('',#699,#583,#584);
#471=AXIS2_PLACEMENT_3D('',#701,#585,#586);
#472=AXIS2_PLACEMENT_3D('',#702,#587,#588);
#473=AXIS2_PLACEMENT_3D('',#704,#589,#590);
#474=AXIS2_PLACEMENT_3D('',#705,#591,#592);
#475=AXIS2_PLACEMENT_3D('',#707,#593,#594);
#476=AXIS2_PLACEMENT_3D('',#708,#595,#596);
#477=AXIS2_PLACEMENT_3D('',#710,#597,#598);
#478=AXIS2_PLACEMENT_3D('',#711,#599,#600);
#479=AXIS2_PLACEMENT_3D('',#713,#601,#602);
#480=AXIS2_PLACEMENT_3D('',#714,#603,#604);
#481=AXIS2_PLACEMENT_3D('',#716,#605,#606);
#482=AXIS2_PLACEMENT_3D('',#717,#607,#608);
#483=AXIS2_PLACEMENT_3D('',#719,#609,#610);
#484=AXIS2_PLACEMENT_3D('',#720,#611,#612);
#485=AXIS2_PLACEMENT_3D('',#722,#613,#614);
#486=AXIS2_PLACEMENT_3D('',#723,#615,#616);
#487=AXIS2_PLACEMENT_3D('',#724,#617,#618);
#488=AXIS2_PLACEMENT_3D('',#726,#619,#620);
#489=AXIS2_PLACEMENT_3D('',#728,#621,#622);
#490=AXIS2_PLACEMENT_3D('',#729,#623,#624);
#491=AXIS2_PLACEMENT_3D('',#731,#625,#626);
#492=AXIS2_PLACEMENT_3D('',#733,#627,#628);
#493=AXIS2_PLACEMENT_3D('',#734,#629,#630);
#494=AXIS2_PLACEMENT_3D('',#735,#631,#632);
#495=DIRECTION('',(0.,0.,1.));
#496=DIRECTION('',(1.,0.,0.));
#497=DIRECTION('',(-1.,0.,0.));
#498=DIRECTION('',(0.,0.,1.));
#499=DIRECTION('',(-1.,0.,0.));
#500=DIRECTION('',(0.,0.,1.));
#501=DIRECTION('',(1.,0.,0.));
#502=DIRECTION('',(0.,0.,-1.));
#503=DIRECTION('',(-1.,0.,0.));
#504=DIRECTION('',(0.,0.,1.));
#505=DIRECTION('',(-1.,0.,0.));
#506=DIRECTION('',(-5.96922252543653E-16,0.,1.));
#507=DIRECTION('',(-1.,0.,0.));
#508=DIRECTION('',(0.,0.,1.));
#509=DIRECTION('',(-1.,0.,0.));
#510=DIRECTION('',(0.,0.,1.));
#511=DIRECTION('',(-1.,0.,0.));
#512=DIRECTION('',(0.,0.,1.));
#513=DIRECTION('',(-1.,0.,0.));
#514=DIRECTION('',(0.,0.,1.));
#515=DIRECTION('',(-1.,0.,0.));
#516=DIRECTION('',(0.,0.,1.));
#517=DIRECTION('',(-1.,0.,0.));
#518=DIRECTION('',(0.,0.,1.));
#519=DIRECTION('',(-1.,0.,0.));
#520=DIRECTION('',(0.,0.,1.));
#521=DIRECTION('',(-1.,0.,0.));
#522=DIRECTION('',(0.,0.,1.));
#523=DIRECTION('',(-1.,0.,0.));
#524=DIRECTION('',(0.,0.,1.));
#525=DIRECTION('',(-1.,0.,0.));
#526=DIRECTION('',(0.,0.,1.));
#527=DIRECTION('',(-1.,0.,0.));
#528=DIRECTION('',(0.,0.,1.));
#529=DIRECTION('',(-1.,0.,0.));
#530=DIRECTION('',(0.,0.,1.));
#531=DIRECTION('',(-1.,0.,0.));
#532=DIRECTION('',(0.,0.,1.));
#533=DIRECTION('',(-1.,0.,0.));
#534=DIRECTION('',(0.,0.,1.));
#535=DIRECTION('',(-1.,0.,0.));
#536=DIRECTION('',(0.,0.,1.));
#537=DIRECTION('',(-1.,0.,0.));
#538=DIRECTION('',(0.,0.,1.));
#539=DIRECTION('',(-1.,0.,0.));
#540=DIRECTION('',(0.,0.,1.));
#541=DIRECTION('',(1.,0.,0.));
#542=DIRECTION('',(1.38633517562175E-17,0.,-1.));
#543=DIRECTION('',(-1.,0.,0.));
#544=DIRECTION('',(0.,0.,1.));
#545=DIRECTION('',(-1.,0.,0.));
#546=DIRECTION('',(0.,0.,1.));
#547=DIRECTION('',(-1.,0.,0.));
#548=DIRECTION('',(0.,0.,1.));
#549=DIRECTION('',(-1.,0.,0.));
#550=DIRECTION('',(0.,0.,1.));
#551=DIRECTION('',(-1.,0.,0.));
#552=DIRECTION('',(0.,0.,1.));
#553=DIRECTION('',(-1.,0.,0.));
#554=DIRECTION('',(0.,0.,1.));
#555=DIRECTION('',(-1.,0.,0.));
#556=DIRECTION('',(0.,0.,1.));
#557=DIRECTION('',(-1.,0.,0.));
#558=DIRECTION('',(0.,0.,1.));
#559=DIRECTION('',(-1.,0.,0.));
#560=DIRECTION('',(0.,0.,1.));
#561=DIRECTION('',(-1.,0.,0.));
#562=DIRECTION('',(0.,0.,1.));
#563=DIRECTION('',(-1.,0.,0.));
#564=DIRECTION('',(0.,0.,1.));
#565=DIRECTION('',(1.,0.,0.));
#566=DIRECTION('',(0.,0.,-1.));
#567=DIRECTION('',(-1.,0.,0.));
#568=DIRECTION('',(0.,0.,1.));
#569=DIRECTION('',(-1.,0.,0.));
#570=DIRECTION('',(0.,0.,1.));
#571=DIRECTION('',(-1.,0.,0.));
#572=DIRECTION('',(0.,0.,1.));
#573=DIRECTION('',(1.,0.,0.));
#574=DIRECTION('',(0.,0.,-1.));
#575=DIRECTION('',(1.,0.,0.));
#576=DIRECTION('',(0.,0.,-1.));
#577=DIRECTION('',(-1.,0.,0.));
#578=DIRECTION('',(0.,0.,1.));
#579=DIRECTION('',(1.,0.,0.));
#580=DIRECTION('',(0.,0.,-1.));
#581=DIRECTION('',(1.,0.,0.));
#582=DIRECTION('',(0.,0.,-1.));
#583=DIRECTION('',(1.,0.,0.));
#584=DIRECTION('',(0.,0.,-1.));
#585=DIRECTION('',(1.,0.,0.));
#586=DIRECTION('',(0.,0.,-1.));
#587=DIRECTION('',(1.,0.,0.));
#588=DIRECTION('',(0.,0.,-1.));
#589=DIRECTION('',(-1.,0.,0.));
#590=DIRECTION('',(0.,0.,1.));
#591=DIRECTION('',(1.,0.,0.));
#592=DIRECTION('',(0.,0.,-1.));
#593=DIRECTION('',(1.,0.,0.));
#594=DIRECTION('',(0.,0.,-1.));
#595=DIRECTION('',(1.,0.,0.));
#596=DIRECTION('',(0.,0.,-1.));
#597=DIRECTION('',(1.,0.,0.));
#598=DIRECTION('',(7.70905482152656E-17,0.,-1.));
#599=DIRECTION('',(1.,0.,0.));
#600=DIRECTION('',(0.,0.,-1.));
#601=DIRECTION('',(-1.,0.,0.));
#602=DIRECTION('',(0.,0.,1.));
#603=DIRECTION('',(1.,0.,0.));
#604=DIRECTION('',(0.,0.,-1.));
#605=DIRECTION('',(1.,0.,0.));
#606=DIRECTION('',(0.,0.,-1.));
#607=DIRECTION('',(1.,0.,0.));
#608=DIRECTION('',(0.,0.,-1.));
#609=DIRECTION('',(1.,0.,0.));
#610=DIRECTION('',(0.,0.,-1.));
#611=DIRECTION('',(1.,0.,0.));
#612=DIRECTION('',(0.,0.,-1.));
#613=DIRECTION('',(1.,0.,0.));
#614=DIRECTION('',(0.,0.,-1.));
#615=DIRECTION('',(1.,0.,0.));
#616=DIRECTION('',(7.90978609719095E-17,0.,-1.));
#617=DIRECTION('',(-1.,0.,0.));
#618=DIRECTION('',(0.,1.,6.12323399573677E-17));
#619=DIRECTION('',(-1.,0.,0.));
#620=DIRECTION('',(0.,1.,6.12323399573677E-17));
#621=DIRECTION('',(-1.,0.,0.));
#622=DIRECTION('',(0.,0.,1.));
#623=DIRECTION('',(-1.,0.,0.));
#624=DIRECTION('',(0.,0.,1.));
#625=DIRECTION('',(-1.,0.,0.));
#626=DIRECTION('',(0.,0.,1.));
#627=DIRECTION('',(-1.,0.,0.));
#628=DIRECTION('',(0.,0.,1.));
#629=DIRECTION('',(-1.,0.,0.));
#630=DIRECTION('',(0.,0.,1.));
#631=DIRECTION('',(-1.,0.,0.));
#632=DIRECTION('',(0.,0.,1.));
#633=CARTESIAN_POINT('',(0.,0.,0.));
#634=CARTESIAN_POINT('',(-381.040342076203,0.,0.));
#635=CARTESIAN_POINT('',(-381.040342076203,0.,78.3305008034731));
#636=CARTESIAN_POINT('',(-381.040342076202,0.,0.));
#637=CARTESIAN_POINT('',(-381.040342076202,0.,671.325918559298));
#638=CARTESIAN_POINT('',(-381.040342076202,671.325918559298,0.));
#639=CARTESIAN_POINT('',(-81.7691958459212,0.,0.));
#640=CARTESIAN_POINT('',(-81.7691958459212,0.,73.9416556449122));
#641=CARTESIAN_POINT('',(-381.040342076203,0.,0.));
#642=CARTESIAN_POINT('',(-83.0979619135526,0.,0.));
#643=CARTESIAN_POINT('',(-83.0979619135526,0.,147.844317717433));
#644=CARTESIAN_POINT('',(-81.7691958459212,0.,0.));
#645=CARTESIAN_POINT('',(-240.675873147903,0.,0.));
#646=CARTESIAN_POINT('',(-240.675873147903,0.,147.844317717434));
#647=CARTESIAN_POINT('',(0.,0.,0.));
#648=CARTESIAN_POINT('',(-285.990837316298,0.,0.));
#649=CARTESIAN_POINT('',(-285.990837316298,0.,193.159281885828));
#650=CARTESIAN_POINT('',(-240.675873147903,0.,0.));
#651=CARTESIAN_POINT('',(-285.990837316298,0.,0.));
#652=CARTESIAN_POINT('',(-285.990837316298,0.,234.38285117425));
#653=CARTESIAN_POINT('',(-285.990837316298,193.159281885828,0.));
#654=CARTESIAN_POINT('',(-237.847089612767,0.,0.));
#655=CARTESIAN_POINT('',(-237.847089612767,0.,282.526598877781));
#656=CARTESIAN_POINT('',(-237.847089612767,0.,0.));
#657=CARTESIAN_POINT('',(17.152910387233,0.,0.));
#658=CARTESIAN_POINT('',(17.152910387233,0.,282.526598877781));
#659=CARTESIAN_POINT('',(0.,0.,0.));
#660=CARTESIAN_POINT('',(17.1529103872334,0.,0.));
#661=CARTESIAN_POINT('',(17.1529103872334,0.,397.526598877781));
#662=CARTESIAN_POINT('',(17.1529103872332,282.526598877781,0.));
#663=CARTESIAN_POINT('',(-12.1915176347807,0.,0.));
#664=CARTESIAN_POINT('',(-12.1915176347807,0.,397.526598877781));
#665=CARTESIAN_POINT('',(0.,0.,0.));
#666=CARTESIAN_POINT('',(-33.4712575064013,0.,0.));
#667=CARTESIAN_POINT('',(-33.4712575064013,0.,347.405640110522));
#668=CARTESIAN_POINT('',(-12.1915176347807,0.,0.));
#669=CARTESIAN_POINT('',(-60.4255946771205,0.,0.));
#670=CARTESIAN_POINT('',(-60.4255946771205,0.,347.405640110522));
#671=CARTESIAN_POINT('',(0.,0.,0.));
#672=CARTESIAN_POINT('',(-110.935740150138,0.,0.));
#673=CARTESIAN_POINT('',(-110.935740150138,0.,397.526598877781));
#674=CARTESIAN_POINT('',(-110.548052809413,0.,0.));
#675=CARTESIAN_POINT('',(-186.685384582069,0.,0.));
#676=CARTESIAN_POINT('',(-186.685384582069,0.,472.69258324889));
#677=CARTESIAN_POINT('',(-111.517151625708,0.,0.));
#678=CARTESIAN_POINT('',(-186.685384582069,0.,0.));
#679=CARTESIAN_POINT('',(-186.685384582069,0.,517.567375701723));
#680=CARTESIAN_POINT('',(-186.685384582069,472.69258324889,0.));
#681=CARTESIAN_POINT('',(-141.288606189279,0.,0.));
#682=CARTESIAN_POINT('',(-141.288606189279,0.,580.532361773717));
#683=CARTESIAN_POINT('',(-120.321017188462,0.,0.));
#684=CARTESIAN_POINT('',(-29.2153095320773,0.,0.));
#685=CARTESIAN_POINT('',(-29.2153095320773,0.,617.853212120415));
#686=CARTESIAN_POINT('',(-141.288606189279,0.,0.));
#687=CARTESIAN_POINT('',(-29.2153095320773,0.,0.));
#688=CARTESIAN_POINT('',(-29.2153095320773,0.,671.325918559298));
#689=CARTESIAN_POINT('',(-29.2153095320773,617.853212120415,0.));
#690=CARTESIAN_POINT('',(0.,0.,0.));
#691=CARTESIAN_POINT('',(-91.1677483246503,0.,0.));
#692=CARTESIAN_POINT('',(-91.1677483246503,0.,-454.333419109732));
#693=CARTESIAN_POINT('',(-91.1677483246503,0.,0.));
#694=CARTESIAN_POINT('',(-91.1677483246503,0.,-512.768294993244));
#695=CARTESIAN_POINT('',(-91.1677483246503,0.,512.768294993244));
#696=CARTESIAN_POINT('',(87.6134815612925,0.,0.));
#697=CARTESIAN_POINT('',(87.6134815612925,0.,-454.333419109732));
#698=CARTESIAN_POINT('',(0.,0.,0.));
#699=CARTESIAN_POINT('',(165.567301069002,0.,0.));
#700=CARTESIAN_POINT('',(165.567301069002,0.,-400.960843940292));
#701=CARTESIAN_POINT('',(87.6134815612925,0.,0.));
#702=CARTESIAN_POINT('',(165.567301069002,0.,0.));
#703=CARTESIAN_POINT('',(165.567301069002,0.,-206.884626037186));
#704=CARTESIAN_POINT('',(165.567301069002,0.,400.960843940292));
#705=CARTESIAN_POINT('',(85.417165530649,0.,0.));
#706=CARTESIAN_POINT('',(85.417165530649,0.,-206.884626037186));
#707=CARTESIAN_POINT('',(0.,0.,0.));
#708=CARTESIAN_POINT('',(39.5833476687004,0.,0.));
#709=CARTESIAN_POINT('',(39.5833476687004,0.,-166.86110288699));
#710=CARTESIAN_POINT('',(85.417165530649,0.,0.));
#711=CARTESIAN_POINT('',(39.5833476687002,0.,0.));
#712=CARTESIAN_POINT('',(39.5833476687002,0.,-90.2203591263189));
#713=CARTESIAN_POINT('',(39.5833476687003,0.,166.86110288699));
#714=CARTESIAN_POINT('',(298.771804671913,0.,0.));
#715=CARTESIAN_POINT('',(298.771804671913,0.,-90.2203591263189));
#716=CARTESIAN_POINT('',(0.,0.,0.));
#717=CARTESIAN_POINT('',(298.771804671913,0.,0.));
#718=CARTESIAN_POINT('',(298.771804671913,0.,-627.980814350983));
#719=CARTESIAN_POINT('',(298.771804671913,0.,90.220359126319));
#720=CARTESIAN_POINT('',(180.096470389059,0.,0.));
#721=CARTESIAN_POINT('',(180.096470389059,0.,-627.980814350983));
#722=CARTESIAN_POINT('',(0.,0.,0.));
#723=CARTESIAN_POINT('',(180.096470389059,0.,0.));
#724=CARTESIAN_POINT('',(298.771804671913,0.,0.));
#725=CARTESIAN_POINT('',(298.771804671913,839.82060571528,5.14241808323605E-14));
#726=CARTESIAN_POINT('',(-381.040342076202,0.,0.));
#727=CARTESIAN_POINT('',(-381.040342076202,839.82060571528,5.14241808323605E-14));
#728=CARTESIAN_POINT('',(298.771804671913,0.,0.));
#729=CARTESIAN_POINT('',(298.771804671913,0.,0.));
#730=CARTESIAN_POINT('',(298.771804671913,0.,671.325918559298));
#731=CARTESIAN_POINT('',(-381.040342076202,0.,0.));
#732=CARTESIAN_POINT('',(-381.040342076202,0.,671.325918559298));
#733=CARTESIAN_POINT('',(298.771804671913,0.,0.));
#734=CARTESIAN_POINT('',(298.771804671913,0.,0.));
#735=CARTESIAN_POINT('',(-381.040342076202,0.,0.));
#736=MECHANICAL_DESIGN_GEOMETRIC_PRESENTATION_REPRESENTATION('',(#24,#25,
#26),#737);
#737=(
GEOMETRIC_REPRESENTATION_CONTEXT(3)
GLOBAL_UNCERTAINTY_ASSIGNED_CONTEXT((#738))
GLOBAL_UNIT_ASSIGNED_CONTEXT((#744,#740,#739))
REPRESENTATION_CONTEXT('rim_seal_proto','TOP_LEVEL_ASSEMBLY_PART')
);
#738=UNCERTAINTY_MEASURE_WITH_UNIT(LENGTH_MEASURE(2.E-5),#744,
'DISTANCE_ACCURACY_VALUE','Maximum Tolerance applied to model');
#739=(
NAMED_UNIT(*)
SI_UNIT($,.STERADIAN.)
SOLID_ANGLE_UNIT()
);
#740=(
CONVERSION_BASED_UNIT('DEGREE',#742)
NAMED_UNIT(#741)
PLANE_ANGLE_UNIT()
);
#741=DIMENSIONAL_EXPONENTS(0.,0.,0.,0.,0.,0.,0.);
#742=PLANE_ANGLE_MEASURE_WITH_UNIT(PLANE_ANGLE_MEASURE(0.0174532925),#743);
#743=(
NAMED_UNIT(*)
PLANE_ANGLE_UNIT()
SI_UNIT($,.RADIAN.)
);
#744=(
LENGTH_UNIT()
NAMED_UNIT(*)
SI_UNIT(.MILLI.,.METRE.)
);
ENDSEC;
END-ISO-10303-21;
